<?xml version="1.0" standalone="no"?>
<!DOCTYPE svg PUBLIC "-//W3C//DTD SVG 20010904//EN"
 "http://www.w3.org/TR/2001/REC-SVG-20010904/DTD/svg10.dtd">
<svg version="1.0" xmlns="http://www.w3.org/2000/svg"
 width="1280.000000pt" height="640.000000pt" viewBox="0 0 1280.000000 640.000000"
 preserveAspectRatio="xMidYMid meet">
<metadata>
Created by potrace 1.15, written by Peter Selinger 2001-2017
</metadata>
<g transform="translate(0.000000,640.000000) scale(0.100000,-0.100000)"
fill="#000000" stroke="none">
<path d="M6800 4464 c-242 -22 -585 -100 -852 -196 l-57 -20 -88 35 c-118 46
-243 82 -388 109 -105 20 -152 23 -375 22 -190 0 -287 -4 -380 -18 -348 -49
-595 -126 -934 -291 l-131 -64 -70 20 c-164 46 -309 63 -535 63 -214 0 -266
-5 -475 -45 -392 -76 -728 -227 -1075 -483 l-35 -25 -110 21 c-152 29 -433 32
-550 4 -271 -63 -534 -227 -651 -407 -294 -451 144 -1009 952 -1213 275 -69
690 -58 1034 29 358 91 777 284 1030 476 l76 57 64 -14 c325 -68 814 -79 1081
-23 206 42 428 129 636 248 l117 67 86 -28 c165 -56 356 -97 600 -130 137 -18
483 -16 590 5 203 38 400 95 573 166 l99 40 71 -36 c156 -78 344 -145 552
-196 236 -58 266 -62 515 -62 211 0 251 3 391 28 86 15 211 41 278 57 l121 30
93 -64 c168 -115 347 -202 585 -283 191 -64 305 -83 557 -90 195 -5 458 10
571 33 27 5 34 1 69 -43 126 -156 262 -237 490 -289 66 -16 121 -19 315 -19
250 0 321 8 480 51 344 95 576 304 656 594 29 104 25 335 -9 461 -66 249 -199
402 -480 549 -291 152 -629 248 -987 281 -138 13 -578 6 -744 -11 l-99 -10
-71 58 c-260 210 -581 320 -1066 367 -297 29 -548 14 -937 -56 -90 -16 -169
-29 -178 -29 -8 0 -54 22 -103 50 -169 96 -391 169 -622 206 -101 16 -564 28
-680 18z"/>
</g>
</svg>
