<?xml version="1.0" standalone="no"?>
<!DOCTYPE svg PUBLIC "-//W3C//DTD SVG 20010904//EN"
 "http://www.w3.org/TR/2001/REC-SVG-20010904/DTD/svg10.dtd">
<svg version="1.0" xmlns="http://www.w3.org/2000/svg"
 width="300.000000pt" height="300.000000pt" viewBox="0 0 300.000000 300.000000"
 preserveAspectRatio="xMidYMid meet">
<metadata>
Created by potrace 1.16, written by Peter Selinger 2001-2019
</metadata>
<g transform="translate(0.000000,300.000000) scale(0.100000,-0.100000)"
fill="#000000" stroke="none">
<path d="M1926 2961 c6 -6 -27 -41 -38 -41 -5 0 -6 6 -2 13 4 6 -2 3 -14 -7
-26 -23 -29 -34 -4 -15 9 7 6 1 -7 -14 -25 -27 -48 -37 -35 -14 5 8 2 8 -9 -2
-20 -16 -23 -26 -4 -15 8 5 8 2 -2 -9 -16 -20 -36 -23 -25 -4 4 7 3 9 -2 4 -5
-5 -9 -14 -9 -19 0 -6 -6 -13 -14 -16 -9 -3 -11 0 -6 9 5 8 4 11 -1 6 -5 -5
-9 -14 -9 -20 0 -7 -9 -12 -20 -12 -11 -1 -19 -6 -18 -12 2 -11 -78 -91 -85
-85 -2 2 -7 0 -10 -4 -4 -4 -1 -4 7 1 9 5 12 3 9 -6 -3 -8 -10 -14 -15 -14 -6
0 -15 -4 -20 -9 -5 -5 -3 -6 5 -2 15 9 15 1 1 -25 -5 -11 -15 -16 -21 -13 -6
4 -8 3 -4 -4 3 -6 -1 -46 -10 -89 -9 -43 -14 -100 -11 -126 2 -26 0 -50 -4
-53 -5 -3 -9 -15 -8 -27 1 -20 2 -20 9 3 8 26 10 23 15 -20 2 -14 11 -56 19
-93 18 -76 21 -116 6 -82 -7 15 -9 16 -9 4 -1 -9 6 -22 14 -29 8 -7 15 -24 15
-37 0 -22 -2 -24 -16 -12 -9 8 -43 14 -78 15 -68 1 -111 18 -102 39 3 8 0 17
-6 21 -7 4 -8 3 -4 -4 4 -7 2 -12 -3 -12 -6 0 -11 4 -11 9 0 5 -3 17 -7 27 -5
13 -3 15 7 9 9 -5 11 -4 6 4 -4 6 -12 8 -18 5 -8 -5 -9 -1 -5 10 4 9 3 15 -2
12 -18 -12 -34 54 -27 112 5 47 3 67 -15 107 -15 34 -20 60 -16 88 4 27 2 36
-4 26 -5 -7 -9 -12 -10 -9 -3 21 -8 38 -15 54 -6 15 -4 17 7 11 8 -5 11 -5 6
1 -5 5 -12 9 -15 9 -4 1 -23 11 -42 23 -26 17 -44 22 -70 18 -76 -12 -136 -37
-180 -78 -25 -23 -40 -39 -35 -36 6 4 11 -32 12 -98 l2 -104 -35 -15 c-20 -8
-40 -12 -45 -9 -5 3 -8 0 -7 -8 2 -7 -5 -12 -14 -12 -10 1 -16 -2 -13 -6 5 -9
-69 -82 -77 -75 -3 3 -11 -2 -19 -12 -9 -11 -10 -14 -1 -9 6 4 12 3 12 -2 0
-14 -26 -33 -34 -25 -4 4 -5 1 -2 -7 7 -18 -31 -83 -43 -76 -11 7 -33 -18 -24
-27 8 -9 -17 -38 -27 -32 -5 3 -12 0 -16 -6 -4 -8 -3 -9 4 -5 7 4 12 3 12 -3
0 -12 -79 -105 -94 -110 -6 -2 5 14 24 35 l35 39 -43 -40 c-42 -39 -53 -53
-30 -39 7 4 8 3 4 -5 -9 -14 -120 -71 -138 -71 -9 0 -9 3 2 11 13 9 13 10 0 6
-8 -2 -15 -9 -15 -15 0 -6 -17 -22 -38 -36 -42 -29 -52 -32 -41 -13 4 7 3 9
-2 4 -5 -5 -9 -12 -9 -16 0 -13 -78 -90 -86 -86 -3 3 -13 -3 -20 -12 -10 -12
-10 -14 -1 -9 17 10 15 -9 -3 -24 -16 -13 -20 -42 -8 -54 5 -4 8 -13 8 -19 0
-7 6 -13 13 -13 6 -1 17 -2 23 -3 5 0 8 -5 4 -10 -3 -5 0 -13 6 -17 8 -4 9 -3
5 4 -4 7 -3 12 2 12 11 0 30 -20 32 -35 1 -5 4 -12 7 -15 4 -3 3 1 -1 8 -4 6
-3 12 2 12 11 0 30 -20 32 -35 1 -5 4 -12 7 -15 4 -3 3 1 -1 8 -4 6 -3 12 2
12 10 0 28 -19 34 -35 1 -5 10 -10 18 -10 8 0 15 -5 15 -12 0 -6 4 -15 9 -20
5 -5 6 -3 2 5 -12 20 9 13 32 -11 24 -26 29 -43 10 -31 -9 5 -9 2 1 -9 16 -20
25 -22 16 -4 -6 11 10 -6 58 -64 12 -14 30 -29 40 -32 10 -4 16 -11 13 -15 -3
-5 5 -8 17 -8 12 1 21 -4 20 -10 -1 -7 5 -11 15 -10 9 0 17 -4 17 -11 0 -6 4
-15 9 -20 5 -5 6 -2 1 6 -5 9 -3 12 6 9 8 -3 13 -10 12 -16 -2 -7 4 -9 14 -5
11 4 14 3 9 -5 -4 -8 -2 -10 8 -6 8 3 29 -2 48 -12 52 -27 257 -94 288 -94 31
0 45 13 55 53 9 36 19 41 60 27 36 -12 44 -24 23 -36 -7 -5 -8 -3 -3 6 5 8 4
11 -3 6 -6 -4 -9 -13 -6 -20 3 -7 -3 -19 -12 -27 -16 -12 -17 -12 -9 1 4 8 -4
4 -18 -9 -15 -14 -27 -27 -27 -29 0 -3 9 3 20 13 11 10 20 13 20 7 0 -14 -37
-35 -49 -28 -5 3 -14 -1 -21 -9 -7 -8 -9 -15 -6 -15 4 0 2 -9 -4 -20 -6 -11
-15 -18 -19 -15 -5 2 -15 -3 -22 -13 -13 -15 -12 -16 4 -3 19 15 24 2 5 -17
-16 -16 -43 -15 -93 2 -26 9 -76 13 -140 12 -86 -2 -108 -6 -154 -29 -62 -31
-65 -31 -55 -15 5 7 3 8 -5 4 -7 -5 -10 -11 -7 -14 7 -7 -13 -32 -26 -32 -6 0
-4 8 3 18 13 15 12 16 -3 3 -10 -7 -16 -17 -13 -21 4 -7 -61 -75 -73 -75 -4 0
-6 -4 -4 -8 4 -13 -18 -48 -28 -42 -5 3 -12 0 -16 -6 -4 -8 -3 -9 4 -5 16 10
15 1 -7 -42 -46 -92 -50 -236 -10 -355 11 -32 17 -62 14 -68 -4 -5 -1 -8 6 -7
6 2 14 -3 17 -11 3 -9 0 -11 -9 -6 -8 5 -11 4 -6 -1 5 -5 14 -9 20 -9 5 0 12
-6 15 -14 3 -9 0 -11 -8 -6 -9 5 -11 4 -6 -4 4 -6 11 -9 15 -7 8 5 66 -52 66
-65 0 -4 4 -11 9 -16 5 -5 6 -3 2 5 -4 6 -4 12 -1 12 13 0 65 -42 61 -48 -2
-4 8 -8 22 -8 15 -1 52 -9 82 -18 70 -20 141 -20 210 0 30 9 65 17 77 17 12 1
21 6 20 11 -1 5 4 11 12 14 9 3 11 0 6 -9 -5 -8 -4 -11 1 -6 5 5 9 14 9 20 0
7 8 12 17 12 10 0 17 4 17 9 -2 12 83 96 92 90 4 -2 11 1 15 7 4 8 3 9 -4 5
-16 -10 -15 0 4 29 9 14 20 23 24 20 5 -3 12 0 16 6 4 8 3 9 -4 5 -16 -10 -16
-8 12 60 13 32 29 91 36 131 11 63 16 73 39 82 44 17 155 44 183 45 14 1 25 3
22 5 -4 5 28 30 39 31 5 0 5 -6 1 -12 -4 -7 2 -5 14 6 12 10 20 21 20 25 -4
13 45 131 54 131 5 0 6 -6 2 -12 -5 -9 -2 -9 9 1 20 16 23 26 5 15 -9 -5 -9
-2 1 9 7 9 21 17 30 17 14 0 14 -2 1 -10 -11 -7 -6 -10 20 -9 27 0 30 2 16 8
-19 7 -18 8 4 14 13 3 60 4 104 2 86 -3 116 8 116 46 0 38 17 26 29 -21 7 -28
17 -52 22 -56 5 -3 9 -12 9 -20 0 -9 -5 -12 -12 -8 -7 4 -8 3 -4 -5 4 -6 12
-8 18 -5 7 5 9 1 5 -9 -4 -10 -2 -16 5 -14 6 1 13 -4 16 -12 3 -9 0 -11 -8 -6
-9 6 -11 4 -6 -4 5 -7 11 -10 14 -6 8 7 82 -66 76 -76 -2 -4 1 -11 7 -15 8 -4
9 -3 5 4 -10 16 2 15 19 -2 8 -7 11 -17 7 -20 -3 -4 2 -4 12 0 13 5 17 4 12
-4 -4 -7 -2 -10 7 -6 7 2 34 -4 59 -15 57 -24 137 -37 203 -32 28 2 64 5 82 5
17 1 29 4 27 7 -3 5 59 39 72 39 3 0 2 -5 -2 -12 -4 -7 -3 -8 5 -4 6 4 9 11 7
15 -3 4 8 18 24 29 33 25 44 28 34 10 -4 -7 11 5 34 26 23 21 41 42 40 45 -2
19 3 31 11 26 5 -3 13 0 17 6 5 8 3 9 -6 4 -8 -5 -11 -3 -8 6 3 8 10 14 15 14
6 0 15 4 20 9 5 6 2 6 -6 1 -11 -6 -13 -4 -6 11 55 127 66 216 37 318 -8 28
-15 61 -16 73 0 11 -4 19 -7 17 -6 -3 -69 91 -69 102 0 3 6 2 13 -2 6 -4 4 2
-7 14 -10 12 -22 19 -26 17 -9 -6 -39 27 -37 40 1 5 -7 10 -18 10 -11 0 -20 5
-20 12 0 6 -4 15 -9 20 -5 5 -6 2 -1 -6 5 -9 3 -12 -6 -9 -8 3 -13 10 -12 16
2 6 -3 9 -10 6 -7 -2 -30 2 -50 11 -25 10 -71 15 -152 15 -84 0 -117 3 -119
13 -3 6 -12 39 -21 72 -9 33 -23 79 -30 102 -11 35 -11 44 2 63 10 14 22 20
34 17 12 -3 17 -1 12 6 -4 6 0 8 10 4 10 -4 16 -2 14 6 -1 7 8 12 20 11 12 0
20 3 17 7 -3 5 24 23 58 41 82 43 82 43 73 28 -5 -9 -4 -11 4 -6 6 4 9 11 6
15 -2 5 2 23 11 40 22 44 8 161 -31 253 -18 44 -19 51 -5 43 6 -4 7 1 3 11 -4
11 -8 13 -11 6 -2 -7 -8 -10 -13 -6 -14 8 -11 61 5 92 16 32 24 202 12 246 -7
23 -6 27 4 21 9 -5 11 -4 6 4 -4 6 -11 9 -16 6 -5 -3 -14 4 -20 15 -9 17 -20
20 -53 19 -23 -1 -53 -7 -67 -12 -58 -21 -66 -19 -80 22 -13 42 -9 71 12 71 9
0 9 -3 0 -12 -7 -7 -12 -16 -12 -21 0 -5 8 1 19 14 10 13 16 30 13 38 -4 10
-1 13 11 8 9 -3 19 -1 23 5 5 7 2 8 -6 3 -8 -5 -11 -3 -8 6 3 8 10 14 15 14 6
0 15 4 20 9 4 5 3 6 -4 2 -9 -5 -10 3 -6 29 4 23 0 43 -11 59 -19 30 -20 40
-3 30 7 -4 9 -3 4 2 -5 5 -13 9 -18 9 -5 0 -9 4 -8 8 1 14 -53 67 -62 61 -5
-3 -15 11 -24 31 l-15 37 -64 -7 c-44 -5 -71 -3 -87 6 -22 11 -94 20 -83 10z
m-256 -1023 c15 -13 35 -27 44 -33 9 -5 18 -20 21 -33 3 -17 -4 -28 -33 -46
-38 -23 -43 -25 -149 -50 -34 -7 -65 -16 -70 -19 -17 -11 -30 8 -47 65 -26 92
-25 94 44 102 33 4 77 13 97 21 52 19 61 18 93 -7z m209 -220 c21 -56 21 -66
5 -82 -15 -15 -15 -20 2 -65 19 -53 14 -87 -12 -77 -8 3 -12 2 -9 -4 7 -12
-32 -33 -47 -24 -7 4 -8 3 -4 -4 8 -14 -50 -46 -66 -36 -7 5 -8 3 -3 -6 6 -10
4 -12 -9 -7 -9 4 -15 3 -11 -2 3 -5 -15 -20 -39 -34 l-44 -24 -11 37 c-6 21
-11 45 -11 54 0 46 -29 75 -96 96 -36 11 -75 20 -85 20 -11 0 -19 7 -19 18 0
10 3 13 8 6 4 -6 25 -14 47 -17 22 -3 32 -3 22 -1 -9 3 -15 9 -12 13 2 5 -8 7
-23 5 -26 -4 -26 -4 3 7 17 6 35 11 42 11 7 1 10 5 7 9 -9 14 58 41 92 37 18
-2 31 -1 28 3 -5 9 23 22 55 25 13 2 26 6 30 10 3 4 -4 4 -17 1 -13 -3 -20 -1
-16 5 6 10 23 8 112 -8 30 -6 34 -4 45 25 14 37 24 39 36 9z m289 -213 c23
-63 42 -121 42 -128 0 -6 -19 -22 -42 -35 -32 -17 -43 -19 -50 -10 -4 7 -6 19
-3 25 2 7 -1 12 -8 10 -7 -1 -12 8 -11 20 0 12 -3 20 -7 17 -5 -2 -15 9 -24
25 -18 36 -19 45 -3 35 7 -4 8 -3 4 5 -4 6 -11 9 -16 6 -10 -6 -40 45 -40 68
0 20 48 50 68 42 9 -3 13 -3 9 1 -8 9 11 34 27 34 6 0 30 -52 54 -115z m-295
-150 c7 -16 -47 -111 -61 -108 -6 2 -9 -3 -7 -10 3 -6 -5 -23 -17 -37 -13 -14
-18 -19 -13 -10 9 13 8 13 -7 2 -9 -8 -15 -19 -13 -25 5 -14 -39 -67 -56 -67
-7 0 -10 14 -7 39 2 22 0 37 -4 35 -12 -8 -39 56 -36 84 2 17 18 37 46 59 44
33 69 43 56 21 -4 -7 -3 -8 5 -4 6 4 9 12 5 17 -3 5 9 16 27 23 35 15 73 6 82
-19z m149 -42 c20 -18 25 -38 6 -27 -7 4 -8 3 -4 -5 4 -6 11 -9 16 -6 18 11
18 -26 -1 -47 -11 -13 -17 -16 -13 -8 4 9 3 12 -2 7 -5 -5 -9 -16 -9 -25 0 -9
-5 -16 -12 -15 -8 2 -10 -4 -6 -14 5 -12 3 -14 -7 -8 -9 6 -11 4 -5 -4 4 -7 3
-23 -3 -34 -21 -43 -42 -136 -42 -187 0 -28 -4 -49 -9 -46 -5 3 -8 14 -6 24 1
9 0 11 -2 4 -5 -15 -29 -10 -26 6 1 5 -5 9 -15 8 -9 0 -16 4 -15 11 2 7 -3 10
-11 7 -22 -8 -108 75 -104 100 2 12 8 21 15 21 6 0 15 4 20 9 5 5 3 6 -4 2
-28 -16 -10 13 34 54 26 25 37 33 24 18 -36 -41 -20 -34 20 9 18 20 25 31 15
23 -12 -10 -18 -11 -15 -3 5 14 128 143 137 143 3 0 14 -7 24 -17z m463 -51
c28 -9 50 -22 50 -29 0 -6 4 -15 9 -20 5 -5 6 -2 1 6 -5 9 -3 12 6 9 8 -3 13
-10 12 -16 -2 -6 3 -9 11 -6 16 6 79 -63 70 -78 -4 -7 -2 -8 4 -4 16 10 39
-41 53 -117 10 -53 10 -78 -1 -124 -14 -67 -37 -116 -50 -108 -5 3 -12 0 -16
-6 -4 -8 -3 -9 4 -5 24 15 11 -11 -22 -43 -21 -21 -39 -30 -47 -26 -7 5 -10 4
-6 -2 11 -17 -20 -35 -45 -28 -18 5 -20 4 -8 -4 8 -6 12 -11 8 -11 -4 0 -31
-6 -61 -14 -38 -10 -68 -12 -103 -5 -55 10 -144 48 -144 61 0 5 5 6 12 2 7 -4
8 -3 4 5 -4 6 -12 9 -18 5 -5 -3 -23 6 -39 22 -29 28 -39 51 -16 38 7 -4 9 -3
4 2 -5 5 -14 9 -20 9 -7 0 -12 10 -11 22 0 12 -3 20 -7 18 -15 -10 -33 62 -33
136 0 62 5 89 24 129 l24 50 38 -37 c21 -21 36 -43 34 -49 -3 -7 7 -22 21 -35
14 -13 34 -37 44 -54 11 -16 19 -25 19 -19 0 6 -9 23 -21 38 -11 14 -16 26
-11 26 16 0 45 -52 46 -81 1 -15 4 -25 7 -23 4 2 14 -5 24 -16 27 -30 89 -27
117 5 11 13 24 22 28 20 3 -2 3 19 0 48 -4 28 -12 53 -18 55 -7 2 -12 8 -12
13 0 6 6 7 13 3 6 -4 4 2 -7 14 -10 12 -22 19 -27 16 -12 -7 -34 41 -58 127
-25 91 -25 86 -3 92 33 9 67 5 117 -11z m-1579 -474 c10 -11 -14 -61 -25 -53
-5 3 -13 0 -17 -6 -5 -8 -3 -9 6 -4 8 5 11 3 8 -6 -3 -8 -10 -14 -15 -14 -6 0
-15 -4 -20 -9 -5 -5 -3 -6 5 -2 16 10 15 0 -4 -29 -9 -14 -20 -23 -24 -20 -5
3 -12 0 -16 -6 -4 -8 -3 -9 4 -5 27 16 9 -15 -33 -60 -25 -26 -48 -58 -51 -71
-8 -29 2 -71 21 -89 18 -19 105 -36 102 -20 -1 6 8 11 20 10 12 0 20 3 17 7
-7 13 27 27 131 54 53 14 99 25 102 25 2 0 2 -19 0 -42 -5 -50 -36 -130 -47
-123 -4 3 -7 -3 -6 -12 0 -10 -4 -18 -11 -18 -6 0 -15 -4 -20 -9 -5 -5 -3 -6
5 -2 18 11 15 -2 -7 -25 -11 -12 -24 -18 -29 -15 -11 7 -31 -14 -29 -29 3 -19
-105 -54 -163 -54 -62 1 -126 21 -122 39 1 6 -2 9 -7 6 -12 -8 -61 14 -61 27
0 5 8 3 18 -4 15 -12 15 -11 -1 8 -12 13 -25 19 -35 16 -11 -5 -14 -2 -9 10 3
9 -1 21 -11 29 -16 12 -16 11 -2 -6 13 -17 13 -19 0 -14 -8 3 -15 14 -15 26 0
11 -5 25 -9 29 -5 4 -6 2 -2 -4 4 -7 4 -13 -1 -13 -15 0 -47 95 -50 150 -4 64
18 166 35 163 6 -2 9 3 6 10 -3 8 5 25 16 38 12 13 19 18 15 12 -10 -21 -1
-15 36 24 18 20 28 32 20 28 -10 -6 -12 -4 -6 4 4 7 31 24 59 37 43 21 63 24
133 22 45 -2 85 -6 89 -10z"/>
</g>
</svg>
