<svg id="Calque_1" data-name="Calque 1" xmlns="http://www.w3.org/2000/svg" viewBox="0 0 372 395.19"><defs><style>.cls-1{fill:#676766;}.cls-2{fill:#a5a4a3;}.cls-3{font-size:112px;fill:#1d1d1b;font-family:GhastlyPanic, Ghastly Panic;}.cls-4{fill:#e52421;}</style></defs><title>franck</title><path class="cls-1" d="M116.66,524,111,358l33.92-5H111V212s170.73-164,346,0V524Z" transform="translate(-85 -128.81)"/><polygon class="cls-2" points="31.66 395.19 0 384.19 0 233.19 26.01 229.19 31.66 395.19"/><polygon class="cls-2" points="26.01 224.19 0 224.19 0 76.19 26.01 83.19 26.01 224.19"/><path class="cls-2" d="M85,205s203.53-176,372,7c0,0-147-162-346,0" transform="translate(-85 -128.81)"/><text class="cls-3" transform="translate(41 181.91)">FRANCKENSTEIN</text><ellipse class="cls-4" cx="71.5" cy="275.69" rx="1.5" ry="10.5"/><ellipse class="cls-4" cx="81.5" cy="356.19" rx="2.5" ry="14"/><path class="cls-4" d="M229.21,133.51s-15.41,5.3-12.35,14.46l2.75,15.46s.92,4.13.61,4.64-3.05,18.58,5.51,27.48-9.27,33.85-9.27,33.85,13.24,31,37.7,13.23S279.54,176,279.54,176s4-35.27-8.54-47.15Z" transform="translate(-85 -128.81)"/><ellipse class="cls-4" cx="162.93" cy="299.19" rx="3.78" ry="13"/><ellipse class="cls-4" cx="279.87" cy="64.05" rx="3.1" ry="12.14"/><ellipse class="cls-4" cx="316.33" cy="270.86" rx="2.41" ry="15.33"/><ellipse class="cls-4" cx="322.18" cy="339.46" rx="3.44" ry="12.38"/><ellipse class="cls-4" cx="245.82" cy="351.14" rx="2.06" ry="8.95"/><ellipse class="cls-4" cx="241.01" cy="254.19" rx="2.75" ry="11"/><ellipse class="cls-4" cx="23.1" cy="82.44" rx="2.91" ry="10.75"/></svg>