<?xml version="1.0" standalone="no"?>
<!DOCTYPE svg PUBLIC "-//W3C//DTD SVG 20010904//EN"
 "http://www.w3.org/TR/2001/REC-SVG-20010904/DTD/svg10.dtd">
<svg version="1.0" xmlns="http://www.w3.org/2000/svg"
 width="515.000000pt" height="280.000000pt" viewBox="0 0 515.000000 280.000000"
 preserveAspectRatio="xMidYMid meet">
<metadata>
Created by potrace 1.16, written by Peter Selinger 2001-2019
</metadata>
<g transform="translate(0.000000,280.000000) scale(0.100000,-0.100000)"
fill="#000000" stroke="none">
<path d="M2686 2385 c-58 -35 -83 -62 -68 -77 19 -19 14 -44 -10 -55 -78 -36
-98 -40 -98 -18 0 19 -31 35 -71 35 -38 0 -130 -30 -144 -48 -7 -9 -16 0 -34
35 -14 27 -33 55 -44 64 -20 16 -67 14 -67 -3 0 -5 -19 -8 -42 -6 -41 3 -43 2
-41 -24 2 -37 -22 -37 -35 1 -7 21 -22 33 -56 46 -31 12 -46 24 -48 39 -6 40
-91 33 -102 -9 -3 -13 -24 -39 -47 -57 -22 -17 -49 -47 -60 -65 -30 -48 -79
-40 -79 14 0 48 -69 57 -133 16 -23 -15 -54 -33 -69 -40 -16 -7 -28 -16 -28
-20 0 -17 27 -84 38 -95 21 -21 14 -39 -12 -32 -17 4 -27 0 -35 -13 -10 -17
-11 -17 -26 4 l-15 22 -36 -21 c-26 -15 -34 -26 -30 -39 3 -11 9 -29 12 -41 5
-20 4 -21 -8 -7 -7 9 -19 14 -26 11 -7 -2 -22 4 -33 13 -15 14 -34 18 -91 16
-85 -3 -102 -12 -94 -56 11 -58 -66 -101 -81 -46 -6 22 -37 33 -52 18 -7 -7
-15 -6 -26 3 -13 10 -15 9 -15 -6 -1 -11 -19 -31 -41 -47 -22 -15 -45 -40 -51
-55 -7 -15 -22 -39 -34 -54 -16 -19 -20 -36 -17 -60 10 -74 3 -124 -22 -142
-16 -12 -17 -16 -6 -30 11 -14 11 -16 -3 -16 -21 0 -12 -48 14 -70 19 -18 40
-53 40 -69 0 -6 -11 -13 -25 -17 -28 -7 -29 -8 -15 -35 9 -16 15 -17 31 -9 21
12 41 5 38 -13 -2 -7 3 -24 11 -39 24 -50 113 -46 103 5 -5 27 17 50 41 41 16
-6 19 -19 17 -64 -4 -51 42 -70 103 -45 16 7 18 5 13 -9 -4 -10 -7 -29 -7 -44
l0 -25 -22 19 c-13 11 -35 25 -50 32 -25 10 -28 9 -34 -13 -6 -25 -44 -66 -44
-47 0 6 -10 14 -22 18 -63 21 -83 14 -82 -28 1 -53 12 -68 50 -68 19 0 34 -4
34 -10 0 -5 -9 -10 -20 -10 -11 0 -20 -7 -20 -15 0 -9 9 -15 21 -15 14 0 19
-5 16 -15 -4 -8 -1 -17 5 -21 6 -4 8 -22 4 -43 -8 -53 19 -84 71 -84 22 0 46
3 52 7 16 11 14 66 -4 72 -23 9 -18 21 12 28 16 4 36 9 45 12 12 4 23 -6 37
-33 13 -27 30 -42 55 -51 35 -13 39 -12 71 12 21 16 35 22 37 14 3 -7 10 -8
18 -3 10 6 9 11 -5 21 -15 11 -16 18 -8 36 6 13 14 30 16 40 6 18 -21 48 -44
48 -17 1 -59 34 -59 48 0 12 37 22 56 15 8 -3 14 -9 14 -14 0 -5 11 -9 25 -9
21 0 25 -5 25 -29 0 -45 24 -57 72 -37 9 4 25 3 34 -2 13 -7 25 -6 41 5 30 20
50 5 59 -43 5 -26 15 -39 42 -53 27 -14 31 -19 18 -24 -9 -4 -16 -2 -16 2 0
17 -32 20 -54 6 -13 -9 -30 -13 -38 -10 -8 3 -21 -2 -29 -11 -12 -15 -11 -16
19 -10 28 7 33 4 41 -17 5 -13 9 -32 8 -43 -1 -10 4 -19 12 -19 12 0 19 8 38
44 1 2 13 -6 28 -17 14 -11 34 -18 44 -15 13 3 24 -5 38 -29 17 -30 27 -35 81
-44 48 -8 62 -7 66 3 3 7 12 13 21 13 8 0 15 6 15 13 0 17 118 17 124 0 3 -7
15 -13 26 -13 11 0 20 -7 20 -15 0 -19 25 -20 42 -2 10 12 15 12 26 0 33 -32
91 -3 62 32 -10 12 -10 15 3 15 8 0 22 -10 30 -22 l16 -23 0 23 c1 36 44 26
51 -12 4 -25 12 -31 55 -42 28 -7 64 -13 81 -14 37 0 48 -9 32 -27 -19 -23 6
-39 32 -20 12 8 30 13 41 10 13 -4 19 0 19 11 0 11 9 16 28 16 34 0 52 16 52
47 0 18 6 23 25 23 14 0 25 -5 25 -10 0 -18 -30 -70 -40 -70 -6 0 -10 -4 -10
-10 0 -5 7 -10 16 -10 12 0 14 -3 6 -13 -19 -23 2 -40 41 -33 32 6 35 4 40
-23 7 -35 43 -47 97 -31 46 13 50 13 50 -4 0 -20 16 -29 40 -21 21 7 28 35 9
35 -7 0 -8 11 -4 31 5 24 2 36 -15 54 -15 16 -20 30 -15 45 6 18 12 20 52 15
39 -4 46 -2 50 15 5 20 54 50 80 50 8 0 25 12 40 26 22 22 29 24 56 14 21 -7
33 -7 37 0 5 8 15 8 34 0 35 -13 36 -13 36 6 0 11 5 14 16 10 9 -3 17 -6 19
-6 2 0 13 -20 25 -45 21 -44 23 -45 70 -45 43 0 49 3 52 23 2 18 9 22 36 21
21 -1 32 3 32 12 0 8 -6 11 -15 8 -10 -4 -15 0 -15 15 0 22 -19 28 -37 10 -7
-7 -15 -2 -27 16 -16 25 -16 26 9 35 15 6 32 10 40 10 8 0 16 4 19 8 11 18 86
-2 86 -23 0 -7 6 -15 14 -18 8 -3 12 -15 9 -31 -7 -36 5 -76 23 -76 8 0 23 13
32 30 14 24 24 30 50 30 25 0 41 8 60 30 15 16 34 30 43 30 31 0 49 12 49 31
0 25 26 24 40 -1 6 -11 26 -22 47 -26 32 -6 39 -4 59 21 18 23 20 33 12 48
-15 28 2 37 48 25 50 -14 109 -1 109 24 0 20 53 70 66 63 15 -10 23 26 8 36
-12 8 -12 10 1 19 11 7 18 2 30 -23 14 -28 20 -32 50 -30 64 5 69 7 75 34 6
25 9 26 49 22 40 -5 43 -3 54 23 13 33 10 70 -6 67 -6 -2 -9 4 -6 12 4 8 10
12 15 10 12 -8 89 33 91 48 7 62 2 84 -28 122 l-32 41 21 17 c12 9 29 15 38
12 29 -9 70 6 67 24 -2 11 -12 15 -31 13 -26 -3 -28 -2 -18 16 6 11 16 22 23
24 10 4 9 14 -1 49 -17 59 -25 66 -74 74 -23 4 -47 12 -54 17 -18 15 -83 28
-83 17 0 -6 -9 -20 -20 -32 -11 -12 -18 -27 -15 -35 2 -7 1 -10 -4 -7 -5 3
-12 1 -15 -4 -4 -5 -38 -8 -77 -6 -54 3 -74 8 -85 22 -18 24 -17 28 3 49 16
16 16 16 -5 10 -27 -9 -28 5 -2 29 24 22 26 61 3 69 -14 6 -12 11 15 36 18 16
32 36 32 44 0 26 -35 75 -60 85 -39 15 -95 20 -111 11 -8 -5 -16 -5 -20 2 -4
6 -14 -3 -25 -21 -21 -36 -34 -40 -34 -11 0 11 -9 29 -21 41 -13 13 -19 29
-16 45 3 18 -2 25 -25 33 -19 7 -38 7 -54 1 -14 -6 -32 -10 -40 -10 -14 0 -65
51 -74 74 -12 30 -100 116 -118 116 -12 0 -24 5 -27 11 -4 6 -19 7 -36 4 -18
-4 -29 -3 -29 5 0 6 -7 22 -16 35 -13 21 -19 23 -42 14 -15 -6 -57 -12 -94
-13 -61 -2 -68 0 -79 21 -10 19 -18 23 -40 18 -15 -4 -30 -1 -34 5 -3 5 -11 7
-17 4 -6 -4 -29 -8 -52 -8 -36 -1 -41 -4 -49 -33 -16 -55 -62 -51 -69 5 -2 16
-13 32 -30 42 -26 14 -31 13 -70 -7 -27 -13 -60 -21 -90 -20 -42 0 -48 3 -48
22 0 24 -50 66 -77 64 -10 0 -35 -11 -57 -24z"/>
<path d="M504 1526 c-18 -14 -12 -36 11 -36 8 0 21 -13 30 -30 17 -33 20 -52
4 -30 -8 12 -12 12 -16 2 -4 -10 -7 -10 -17 2 -9 13 -14 13 -29 1 -25 -18 -16
-60 22 -106 l29 -34 36 17 c20 10 36 24 36 33 0 8 5 15 10 15 6 0 10 -4 10
-10 0 -16 36 -12 50 5 10 12 11 24 2 51 -6 20 -8 42 -5 50 3 8 2 25 -1 39 -7
27 -33 33 -65 15 -13 -6 -25 -4 -42 8 -31 21 -44 23 -65 8z"/>
<path d="M4733 1490 c-26 -11 -28 -29 -9 -85 13 -38 16 -40 58 -42 40 -3 45 0
66 34 23 36 23 36 4 62 -11 14 -29 26 -40 25 -12 0 -19 3 -16 8 7 11 -35 9
-63 -2z"/>
<path d="M557 1169 c-9 -5 -14 -16 -11 -22 4 -7 4 -9 0 -5 -4 3 -20 2 -36 -3
-35 -13 -44 -57 -20 -102 14 -26 24 -33 56 -35 22 -2 58 -1 81 3 34 5 44 11
49 30 3 13 12 26 20 29 25 10 17 63 -13 84 -34 24 -102 36 -126 21z"/>
</g>
</svg>
