<?xml version="1.0" standalone="no"?>
<!DOCTYPE svg PUBLIC "-//W3C//DTD SVG 20010904//EN"
 "http://www.w3.org/TR/2001/REC-SVG-20010904/DTD/svg10.dtd">
<svg version="1.0" xmlns="http://www.w3.org/2000/svg"
 width="715.000000pt" height="872.000000pt" viewBox="0 0 715.000000 872.000000"
 preserveAspectRatio="xMidYMid meet">
<metadata>
Created by potrace 1.16, written by Peter Selinger 2001-2019
</metadata>
<g transform="translate(0.000000,872.000000) scale(0.100000,-0.100000)"
fill="#000000" stroke="none">
<path d="M803 8668 c-66 -63 -143 -191 -226 -373 -74 -164 -117 -290 -117
-346 0 -65 59 -276 171 -617 56 -167 99 -305 97 -308 -3 -2 -101 53 -219 122
-362 214 -382 221 -426 155 -43 -64 -65 -156 -71 -294 -4 -127 -4 -128 27
-190 38 -76 112 -169 282 -353 228 -248 303 -353 419 -584 88 -176 155 -279
250 -385 90 -99 141 -174 195 -284 93 -188 129 -357 129 -611 0 -197 -14 -306
-70 -550 -75 -329 -84 -400 -50 -400 7 0 44 20 82 45 38 24 75 45 83 45 20 0
9 -170 -24 -375 -14 -88 -29 -202 -32 -253 l-6 -92 27 0 c30 0 89 28 153 72
l43 29 0 -523 c0 -288 4 -529 8 -535 9 -14 53 21 214 170 53 48 98 87 102 87
3 0 6 -49 6 -109 0 -179 34 -336 112 -521 63 -149 51 -145 120 -38 33 51 63
97 68 101 4 5 31 -63 60 -150 72 -215 131 -356 245 -584 67 -132 100 -188 105
-178 4 8 15 50 24 94 25 122 95 255 135 255 18 0 32 -38 47 -128 35 -197 169
-540 244 -620 28 -30 41 -22 162 95 107 106 97 107 122 -13 13 -61 26 -186 40
-398 2 -32 9 -63 15 -69 7 -7 48 12 133 60 68 38 143 77 167 87 l43 17 42 -45
c22 -25 59 -75 81 -110 l40 -65 106 -1 c174 0 368 47 439 107 21 18 42 33 48
33 5 0 43 22 85 50 72 47 79 55 138 159 54 95 144 216 205 274 298 287 712
711 741 758 8 13 32 37 54 52 21 16 51 45 66 65 15 20 44 55 64 77 21 22 54
72 75 110 21 39 62 100 91 136 29 36 64 92 78 123 24 55 59 106 114 165 55 61
178 256 239 381 86 176 138 256 232 360 195 216 314 466 350 740 16 115 39
205 67 265 25 51 86 219 96 265 6 24 1 27 -106 67 -62 23 -172 71 -245 106
l-134 63 97 73 c100 75 127 109 106 135 -17 20 -65 27 -252 35 -91 5 -171 11
-177 15 -16 10 3 44 73 131 65 81 109 142 118 167 9 26 -35 45 -150 63 -175
28 -311 84 -543 222 -160 96 -220 139 -220 156 0 8 27 19 72 28 135 27 117 61
-92 169 -158 82 -195 111 -180 140 15 29 123 163 225 280 134 154 214 258 222
287 13 55 -82 100 -377 178 -177 47 -409 125 -512 173 -168 78 -453 267 -813
537 -213 160 -293 224 -622 502 -147 123 -223 175 -317 218 -158 72 -256 83
-862 93 l-471 8 -64 36 c-84 48 -290 192 -573 401 -280 207 -442 317 -468 317
-10 0 -44 -24 -75 -52z"/>
</g>
</svg>
