<?xml version="1.0" standalone="no"?>
<!DOCTYPE svg PUBLIC "-//W3C//DTD SVG 20010904//EN"
 "http://www.w3.org/TR/2001/REC-SVG-20010904/DTD/svg10.dtd">
<svg version="1.0" xmlns="http://www.w3.org/2000/svg"
 width="450.000000pt" height="394.000000pt" viewBox="0 0 450.000000 394.000000"
 preserveAspectRatio="xMidYMid meet">
<metadata>
Created by potrace 1.16, written by Peter Selinger 2001-2019
</metadata>
<g transform="translate(0.000000,394.000000) scale(0.100000,-0.100000)"
fill="#000000" stroke="none">
<path d="M186 3921 c-25 -28 -76 -139 -76 -166 0 -12 15 -68 34 -124 l34 -102
-46 27 c-105 62 -101 60 -112 44 -15 -23 -23 -77 -15 -107 3 -14 37 -58 75
-97 45 -47 77 -91 95 -131 14 -33 41 -76 60 -95 78 -81 101 -197 66 -343 -26
-111 -26 -113 4 -93 24 16 25 16 25 -5 0 -13 -5 -51 -11 -86 -6 -35 -9 -67 -5
-70 3 -3 16 1 28 9 l23 15 0 -128 c0 -71 1 -129 2 -129 2 0 20 15 40 34 l38
34 0 -47 c0 -25 9 -67 20 -93 l20 -46 16 25 17 25 17 -53 c10 -30 31 -81 48
-114 l31 -60 7 34 c4 18 14 40 22 48 13 13 16 10 22 -28 8 -50 50 -149 63
-149 5 0 19 12 33 26 l24 26 6 -29 c4 -15 7 -47 8 -70 0 -24 3 -43 6 -43 2 0
19 9 37 20 18 11 38 20 43 20 6 0 26 -26 44 -57 109 -185 214 -288 377 -370
82 -41 114 -63 118 -79 32 -124 79 -443 86 -579 4 -88 15 -180 23 -205 8 -25
17 -97 21 -160 6 -92 4 -122 -8 -151 -14 -35 -19 -37 -73 -44 -92 -11 -143
-47 -143 -100 0 -44 19 -64 65 -67 32 -2 42 -8 53 -31 27 -56 41 -59 237 -46
207 15 194 5 205 149 6 82 13 108 50 189 l42 94 -26 106 c-23 93 -26 126 -26
275 0 135 16 445 23 453 1 0 42 -4 91 -10 110 -13 286 2 432 38 54 13 176 54
269 90 94 37 187 73 207 80 l37 14 46 -87 c25 -48 72 -123 105 -167 155 -211
319 -495 340 -591 12 -55 -7 -272 -31 -351 -9 -29 -56 -63 -88 -63 -23 0 -91
-41 -101 -61 -6 -11 -10 -30 -8 -41 4 -26 33 -35 139 -44 65 -6 76 -9 72 -24
-7 -27 19 -39 105 -51 121 -16 275 -9 300 15 45 40 101 172 151 357 28 101 59
211 71 243 25 75 25 79 -5 124 -16 25 -36 88 -59 187 -19 83 -43 171 -53 197
-16 42 -17 62 -10 188 4 78 11 158 16 178 7 33 9 26 20 -63 20 -158 44 -231
129 -403 44 -88 85 -185 92 -214 7 -29 25 -80 41 -113 33 -72 115 -201 125
-198 4 1 18 39 31 84 13 45 32 94 42 108 48 69 52 201 12 386 -11 50 -34 193
-51 318 -71 531 -187 900 -340 1080 -215 254 -503 317 -1230 267 -368 -25
-641 -24 -795 4 -133 25 -342 83 -404 113 l-54 26 26 19 c40 29 33 38 -28 38
-30 0 -55 3 -55 6 0 3 11 19 25 36 14 16 25 33 25 37 0 5 -20 11 -45 13 -28 4
-71 21 -117 49 -66 40 -70 44 -45 47 39 5 34 17 -18 41 -25 12 -45 25 -45 30
0 5 25 36 55 70 30 34 55 66 55 71 0 14 -20 23 -94 42 -38 10 -92 28 -121 41
-62 29 -213 137 -315 225 -104 91 -120 97 -275 98 -71 1 -138 2 -147 3 -10 0
-71 42 -137 91 -66 50 -124 90 -129 90 -5 0 -17 -9 -26 -19z m3596 -3236 c28
-82 20 -169 -28 -306 -59 -171 -56 -166 -96 -161 l-35 4 19 66 c10 37 28 121
39 187 21 119 22 230 4 390 l-6 50 41 -85 c23 -47 50 -112 62 -145z"/>
</g>
</svg>
