<?xml version="1.0" standalone="no"?>
<!DOCTYPE svg PUBLIC "-//W3C//DTD SVG 20010904//EN"
 "http://www.w3.org/TR/2001/REC-SVG-20010904/DTD/svg10.dtd">
<svg version="1.0" xmlns="http://www.w3.org/2000/svg"
 width="1875.000000pt" height="1642.000000pt" viewBox="0 0 1875.000000 1642.000000"
 preserveAspectRatio="xMidYMid meet">
<metadata>
Created by potrace 1.16, written by Peter Selinger 2001-2019
</metadata>
<g transform="translate(0.000000,1642.000000) scale(0.100000,-0.100000)"
fill="#000000" stroke="none">
<path d="M7140 11836 c0 -24 -67 -216 -91 -259 -30 -55 -56 -154 -74 -286 -9
-64 -27 -156 -41 -205 -47 -167 -176 -390 -311 -536 -92 -100 -135 -165 -227
-350 -71 -142 -174 -306 -236 -377 -60 -69 -93 -117 -117 -171 -14 -31 -49
-87 -79 -124 -29 -36 -70 -97 -91 -135 -39 -72 -97 -144 -203 -253 -36 -36
-132 -138 -215 -226 -136 -144 -502 -512 -572 -574 -62 -56 -157 -181 -214
-282 -53 -94 -68 -113 -122 -151 -34 -24 -72 -47 -85 -51 -13 -4 -38 -21 -56
-37 -72 -62 -245 -109 -438 -116 l-117 -5 56 -91 c221 -366 423 -627 674 -872
264 -257 479 -406 919 -635 240 -124 374 -209 406 -258 32 -48 88 -301 164
-747 112 -654 193 -1309 220 -1760 22 -384 50 -620 95 -810 49 -207 83 -517
92 -850 7 -259 -1 -327 -48 -441 -31 -74 -66 -116 -111 -133 -14 -5 -91 -19
-170 -31 -319 -46 -495 -130 -573 -271 -28 -51 -30 -61 -30 -164 0 -102 2
-113 27 -157 45 -75 99 -101 251 -118 133 -15 157 -33 222 -158 44 -84 104
-143 167 -161 118 -36 345 -33 943 9 431 31 525 46 599 98 78 54 97 122 121
447 33 431 46 482 264 969 67 148 121 277 121 287 0 9 -34 153 -75 320 -132
538 -140 619 -132 1379 5 460 19 890 42 1235 16 247 37 500 43 515 7 15 22 15
212 -9 181 -22 246 -25 550 -25 352 -1 474 6 760 45 614 83 1022 202 1995 581
198 78 458 178 578 223 l218 82 16 -31 c244 -474 395 -724 653 -1082 607 -841
1177 -1820 1349 -2314 l36 -105 -1 -250 c-1 -352 -45 -784 -110 -1075 -32
-144 -47 -172 -126 -246 -78 -73 -157 -112 -261 -130 -151 -26 -381 -167 -433
-265 -22 -43 -36 -121 -29 -166 16 -107 123 -144 525 -183 342 -32 360 -39
352 -119 -4 -45 -2 -53 24 -79 40 -39 121 -68 277 -96 231 -43 350 -51 717
-51 288 0 363 3 455 19 151 25 203 46 259 106 170 181 380 681 566 1345 185
656 256 901 320 1100 101 311 103 365 19 495 -100 155 -143 288 -298 910 -66
267 -139 544 -162 615 -88 278 -90 287 -96 400 -6 114 7 431 33 785 18 256 30
364 51 460 20 97 24 86 57 -166 67 -502 109 -706 207 -990 69 -201 144 -373
316 -729 80 -165 183 -384 229 -488 80 -179 184 -443 184 -466 0 -22 73 -238
115 -342 82 -200 222 -459 383 -704 108 -166 170 -245 192 -245 26 0 54 71
146 365 71 227 121 356 177 448 90 149 129 288 148 533 22 266 -9 585 -101
1044 -72 361 -136 763 -240 1505 -268 1917 -679 3309 -1211 4102 -188 279
-449 552 -719 750 -137 100 -227 155 -383 234 -463 235 -990 359 -1792 419
-229 18 -1017 24 -1370 11 -368 -13 -532 -22 -1065 -56 -1514 -97 -2502 -98
-3155 -4 -312 45 -946 199 -1384 336 -80 25 -154 48 -163 50 -12 4 -18 0 -18
-11z m8491 -8683 c157 -366 195 -521 186 -763 -10 -238 -51 -417 -193 -840
-166 -492 -223 -622 -281 -636 -28 -7 -220 10 -230 20 -3 3 15 79 40 168 90
316 190 822 234 1178 22 182 25 787 5 1005 -14 154 -39 387 -48 450 -7 48 165
-301 287 -582z"/>
</g>
</svg>
