<svg id="Calque_1" data-name="Calque 1" xmlns="http://www.w3.org/2000/svg" viewBox="0 0 8.44 8.44"><defs><style>.cls-1{fill:#d3d3d2;}.cls-2{fill:#e8e8e8;}.cls-3{fill:#a3a2a2;opacity:0.5;}</style></defs><title>lune</title><circle class="cls-1" cx="4.22" cy="4.24" r="4.2"/><path class="cls-2" d="M9.17,4.54A4.22,4.22,0,1,0,5,8.77,4.54,4.54,0,0,0,5.7,8.7a1.08,1.08,0,0,1-.35-.79,1.05,1.05,0,0,1,2.1,0s0,0,0,0A4.22,4.22,0,0,0,9.17,4.54Z" transform="translate(-0.73 -0.32)"/><path class="cls-1" d="M6.4,6.87a1,1,0,0,0-1.05,1,1.08,1.08,0,0,0,.35.79A4.19,4.19,0,0,0,7.44,8s0,0,0,0A1,1,0,0,0,6.4,6.87Z" transform="translate(-0.73 -0.32)"/><ellipse class="cls-1" cx="2.82" cy="1.7" rx="1" ry="0.6"/><ellipse class="cls-1" cx="1.95" cy="5.6" rx="0.87" ry="1.07"/><circle class="cls-1" cx="3.09" cy="3.49" r="0.73"/><ellipse class="cls-1" cx="5.84" cy="2.46" rx="0.88" ry="1.11"/><path class="cls-3" d="M1.49,6.8s3.22,2.37,5.77-.58c0,0,2.21-2.09,0-5,0,0,3.05,1.78.79,5.54A4.26,4.26,0,0,1,1.49,6.8Z" transform="translate(-0.73 -0.32)"/><ellipse class="cls-1" cx="5.15" cy="5.36" rx="1.11" ry="0.83"/></svg>