<svg id="Calque_1" data-name="Calque 1" xmlns="http://www.w3.org/2000/svg" viewBox="0 0 1543.8 436.9"><defs><style>.cls-1{fill:#fcfcfc;stroke:#fff;stroke-miterlimit:10;}</style></defs><title>nuage</title><path class="cls-1" d="M238.5,357.5s212-155,423,0c0,0,165-173,336,0,0,0,139-147,287,0,0,0,155-127,309,0,0,0,102,27,97,114,0,0,52,87-25,169,0,0-134,72-273,0,0,0-156,131-321,0,0,0-99,100-321,4,0,0-221,160-443,3,0,0-115-8-122-97C185.5,550.5,113.5,413.5,238.5,357.5Z" transform="translate(-164.37 -280.11)"/></svg>