<svg id="Calque_1" data-name="Calque 1" xmlns="http://www.w3.org/2000/svg" viewBox="0 0 389 495"><defs><style>.cls-1{fill:#1d1d1b;stroke:#1d1d1b;stroke-width:3px;}.cls-1,.cls-3{stroke-miterlimit:10;}.cls-2{fill:#3b2211;}.cls-3{fill:none;stroke:#fff;}</style></defs><title>panneauPapi</title><line class="cls-1" x1="153.28" x2="153.28" y2="325.87"/><line class="cls-1" x1="239.27" x2="239.27" y2="319.83"/><polygon class="cls-2" points="0 319 389 319 389 495 0 491 0 319"/><path class="cls-3" d="M149.51,356.83V469.64h17.43v-56.4s41.27,6.87,51.82-27.06c0,0,7.8-33.48-53.2-29.35Z" transform="translate(-106)"/><path class="cls-3" d="M177,373.34v21.55S211.88,383,177,373.34Z" transform="translate(-106)"/><path class="cls-3" d="M322.76,356.83V469.64h17.42v-56.4s41.28,6.87,51.82-27.06c0,0,7.8-33.48-53.19-29.35Z" transform="translate(-106)"/><path class="cls-3" d="M350.27,373.34v21.55S385.13,383,350.27,373.34Z" transform="translate(-106)"/><polygon class="cls-3" points="103.24 471.99 120.67 471.99 141.3 415.4 162.4 415.4 177.99 471.99 194.5 471.99 159.19 354.13 142.22 354.13 103.24 471.99"/><polygon class="cls-3" points="146.35 372.47 156.9 372.47 161.02 394.49 142.22 394.49 146.35 372.47"/><rect class="cls-3" x="319.98" y="377.46" width="19.72" height="92.18"/><rect class="cls-3" x="319.98" y="344.9" width="19.72" height="17.89"/></svg>