<svg id="Calque_1" data-name="Calque 1" xmlns="http://www.w3.org/2000/svg" viewBox="0 0 445.31 539.96"><defs><style>.cls-1{fill:#010101;}.cls-2{fill:#382112;}.cls-3{fill:none;stroke:#d27d10;stroke-miterlimit:10;stroke-width:5px;}.cls-4{fill:#4d0f0f;}.cls-5{fill:#e52421;}</style></defs><title>papiFin</title><path class="cls-1" d="M217.6,273.18a62.87,62.87,0,0,0-4.39-12.28l-.46-.89v-.79A76.07,76.07,0,0,0,211.36,246a46.59,46.59,0,0,0-2.42-7.61l-.58-1.39,0-1.07c.11-2.06.1-4.43,0-7.44a72.17,72.17,0,0,0-.86-7.23,67.36,67.36,0,0,0-1.83-6.9l-.39-1.18.12-.89a59.18,59.18,0,0,0,.44-6.9,37.28,37.28,0,0,0-.35-6.36,40,40,0,0,0-.72-4.77c-.21-1-.55-2.55-.74-3.36l-.36-1.46.27-1.18a44.6,44.6,0,0,0,.92-7.37,37,37,0,0,0-.23-6.89c-.24-2.39-.7-5.6-1-7-.07-.32-.06-.41.17-.87a13.64,13.64,0,0,0,1.09-6.21,30.33,30.33,0,0,0-.32-3.87,37,37,0,0,0-1-5.84,21.79,21.79,0,0,0-1.34-3.83,39,39,0,0,0,1.61-7.43,56.61,56.61,0,0,0-.18-12.75,63.13,63.13,0,0,0-3-12.7l-.36-.94.09-.78a77.71,77.71,0,0,0,.14-13.33,45.63,45.63,0,0,0-1.54-7.84l-.42-1.44.18-1.06c.35-2,.6-4.39.81-7.4a70,70,0,0,0,0-7.28,64.93,64.93,0,0,0-1-7.06l-.25-1.22.23-.88a58.61,58.61,0,0,0,1.22-6.8,36.62,36.62,0,0,0,.38-6.35,42.2,42.2,0,0,0-.17-4.82c-.1-1.06-.26-2.6-.36-3.43l-.18-1.49.4-1.15A45.61,45.61,0,0,0,201.58,33a39.32,39.32,0,0,0,.56-6.86c0-2.41-.07-5.65-.21-7,0-.34,0-.42.27-.85a13.64,13.64,0,0,0,1.8-6.05,33.84,33.84,0,0,0,.11-3.88,36.16,36.16,0,0,0-.31-5.92c-.59-4.24-1.89-7.1-3.7-8.08a3.69,3.69,0,0,0-2.87.11c-1.55.81-2.5,2.45-3.41,5.91a59.39,59.39,0,0,0-1.75,12.17c-.08,1.7,0,7.13.07,9.17l.06,1.23-.36.87c-1.31,3.21-2,7.16-2.28,13.14a75.71,75.71,0,0,0,.35,11.55c.09,1.11.18,2.09.18,2.2a10.37,10.37,0,0,1-.32,1.27,41.73,41.73,0,0,0-1.28,7.67c-.1,1.24-.17,6.95-.11,8.38a88.46,88.46,0,0,0,1.22,10.5l.13.71-.22,1.08a47.34,47.34,0,0,0-.68,4.78,38.94,38.94,0,0,0-.14,4.63c0,2.34,0,3.54.11,4.68a63.23,63.23,0,0,0,1.81,11.52l.4,1.61-.12.87a43.11,43.11,0,0,0-.39,6.59,45.47,45.47,0,0,0,.28,5.86,50.9,50.9,0,0,0,3,13.25l.16.43-.13,1.36a44,44,0,0,0,0,6.78,26.87,26.87,0,0,0,.52,2.94,17.36,17.36,0,0,0-.86,3.7,59.28,59.28,0,0,0-.35,12.29c.11,1.7.78,7.08,1.12,9.1l.2,1.21-.26.91c-.93,3.33-1.16,7.34-.77,13.32A76.35,76.35,0,0,0,195,197.55c.23,1.09.42,2,.43,2.16a9.35,9.35,0,0,1-.16,1.3,41.33,41.33,0,0,0-.4,7.76c.05,1.25.62,6.93.85,8.34a86.79,86.79,0,0,0,2.41,10.3l.2.68-.09,1.11a46,46,0,0,0-.13,4.83,40.23,40.23,0,0,0,.39,4.61c.27,2.32.43,3.51.65,4.64a62.77,62.77,0,0,0,3.11,11.23l.58,1.56,0,.87a42.63,42.63,0,0,0,.36,6.6,45.53,45.53,0,0,0,.95,5.78,50.51,50.51,0,0,0,4.5,12.83l.2.41,0,1.36a45,45,0,0,0,.75,6.74c.77,3.27,2.16,6.38,3.43,7.68,3.21,3.28,6-2.48,6.16-12.52A56.56,56.56,0,0,0,217.6,273.18Z" transform="translate(-66.68 83.6)"/><path class="cls-1" d="M408.36-9.68c.06-1.43,0-7.14-.12-8.39A41,41,0,0,0,407-25.74a11.13,11.13,0,0,1-.31-1.27c0-.11.08-1.08.18-2.19a75.74,75.74,0,0,0,.35-11.55c-.29-6-1-9.94-2.28-13.14l-.36-.88L404.6-56c.1-2,.15-7.47.07-9.17a60,60,0,0,0-1.75-12.17c-.92-3.46-1.87-5.1-3.42-5.92a3.67,3.67,0,0,0-2.86-.11c-1.81,1-3.11,3.85-3.7,8.09a34.8,34.8,0,0,0-.32,5.92,30.66,30.66,0,0,0,.12,3.88,13.59,13.59,0,0,0,1.8,6c.27.43.3.52.27.85-.15,1.39-.24,4.64-.21,7a38.49,38.49,0,0,0,.56,6.87,45.89,45.89,0,0,0,1.76,7.21l.4,1.15-.19,1.49c-.1.82-.26,2.37-.35,3.43a39.81,39.81,0,0,0-.17,4.82,36.62,36.62,0,0,0,.38,6.35,58.61,58.61,0,0,0,1.22,6.8l.22.88-.24,1.22a64.84,64.84,0,0,0-1,7.06c-.13,1.32-.14,5.59,0,7.27.21,3,.46,5.37.81,7.4l.17,1.06-.41,1.44a46.84,46.84,0,0,0-1.55,7.84,78.79,78.79,0,0,0,.15,13.33l.09.79-.36.94a63,63,0,0,0-3,12.7,56.53,56.53,0,0,0-.18,12.74,39.17,39.17,0,0,0,1.61,7.44,22,22,0,0,0-1.34,3.82,34.93,34.93,0,0,0-1,5.85,30.21,30.21,0,0,0-.32,3.87,13.57,13.57,0,0,0,1.09,6.2c.22.46.24.55.17.88-.3,1.37-.76,4.58-1,7a37.8,37.8,0,0,0-.22,6.89,44.46,44.46,0,0,0,.92,7.36l.27,1.19-.36,1.46c-.19.81-.53,2.32-.74,3.36a41.79,41.79,0,0,0-.73,4.77,37.19,37.19,0,0,0-.34,6.35,54.84,54.84,0,0,0,.44,6.9l.12.9-.39,1.18a66.67,66.67,0,0,0-1.83,6.9,65,65,0,0,0-.9,14.66l.05,1.08-.58,1.38a45.8,45.8,0,0,0-2.43,7.62A77.93,77.93,0,0,0,384,181.53v.8l-.46.89a62.76,62.76,0,0,0-4.39,12.27,59.67,59.67,0,0,0-1.6,11c-.31,1.85-.56,3.74-.71,5.5a74.15,74.15,0,0,0,.06,14l.13,1.06-.25.82a95,95,0,0,0-3,14.13,56.06,56.06,0,0,0-.23,8.62l.08,1.62-.39,1.09c-.76,2.09-1.51,4.55-2.35,7.7-.46,1.78-1.37,6.31-1.53,7.73-.31,2.71-.5,5.36-.54,7.7l0,1.35-.4.89a69.23,69.23,0,0,0-2.61,7,45.19,45.19,0,0,0-1.72,6.67,48.3,48.3,0,0,0-.87,5.16c-.14,1.14-.32,2.81-.4,3.7l-.15,1.62-.62,1.15a52.53,52.53,0,0,0-3.2,7.32,46.87,46.87,0,0,0-2,7.19c-.55,2.55-1.15,6-1.32,7.52,0,.36-.08.44-.43.85a16,16,0,0,0-3,6.08,36.68,36.68,0,0,0-.94,4.1,42.09,42.09,0,0,0-1,6.34c-.35,4.62.26,7.91,1.74,9.3a3.18,3.18,0,0,0,2.72.42c1.63-.57,2.88-2.13,4.48-5.63a72.27,72.27,0,0,0,4.26-12.6c.44-1.79,1.56-7.56,1.9-9.75l.2-1.31L366,323c1.92-3.16,3.41-7.23,5-13.53a94.08,94.08,0,0,0,2.15-12.34c.14-1.19.28-2.24.3-2.36a12,12,0,0,1,.57-1.29,51.12,51.12,0,0,0,2.85-7.9c.36-1.31,1.65-7.35,1.9-8.89a109.21,109.21,0,0,0,1.11-11.38l0-.77.44-1.12c.58-1.49,1.12-3.08,1.66-4.95a45,45,0,0,0,1.12-4.88c.51-2.49.74-3.77.9-5a74.6,74.6,0,0,0,.77-12.57l0-1.8.3-.89a54.13,54.13,0,0,0,1.78-6.93,55.18,55.18,0,0,0,1-6.27,61.41,61.41,0,0,0,0-14.4l0-.9.2-.41a50.82,50.82,0,0,0,4.5-12.82,45.69,45.69,0,0,0,.95-5.79,45.16,45.16,0,0,0,.36-6.59l0-.88.57-1.55a61.85,61.85,0,0,0,3.12-11.24c.22-1.13.38-2.31.64-4.64a40.83,40.83,0,0,0,.4-4.61c0-1.79,0-3.35-.13-4.83l-.09-1.1.2-.68a89.28,89.28,0,0,0,2.41-10.3c.22-1.41.8-7.09.85-8.34a42.25,42.25,0,0,0-.4-7.77,10,10,0,0,1-.17-1.29c0-.11.21-1.07.43-2.16a76.61,76.61,0,0,0,1.67-11.44c.39-6,.16-10-.77-13.31l-.26-.92.2-1.2c.34-2,1-7.41,1.12-9.11a59.2,59.2,0,0,0-.35-12.28,18,18,0,0,0-.86-3.7,27.48,27.48,0,0,0,.52-3,44,44,0,0,0,0-6.78l-.13-1.35.16-.43a50.88,50.88,0,0,0,3-13.26,45.23,45.23,0,0,0,.28-5.85,43.25,43.25,0,0,0-.39-6.6l-.13-.86.4-1.62a61.44,61.44,0,0,0,1.81-11.51c.09-1.15.12-2.34.12-4.69a41.1,41.1,0,0,0-.14-4.62,46.53,46.53,0,0,0-.68-4.78L407,1.52l.13-.7A90.59,90.59,0,0,0,408.36-9.68Z" transform="translate(-66.68 83.6)"/><polygon class="cls-2" points="21.04 369.53 30.64 371.84 24.63 354.61 41.29 343.96 54.65 351.69 52.22 361.81 58.88 348.19 53.3 333.89 146.02 356.2 152.37 367.31 160.94 359.79 200.38 369.28 198.71 376.21 203.57 370.05 256.4 382.77 355.45 406.6 403.5 443.53 400.21 447.82 405.9 445.24 432.9 475.98 445.31 497 424.18 512.21 393.34 527.91 338.01 539.96 298.58 530.47 289.82 517.65 294.85 529.57 240.51 518.75 233.78 509.24 173.9 502.72 84.91 481.3 28.93 465.58 25.4 456.84 16.25 459.71 22.57 452.21 18.74 440.01 17.33 445.87 13.39 436.47 0 440.57 2.82 428.85 21.04 369.53"/><path class="cls-3" d="M195.09,278.93a31.65,31.65,0,0,0-5.77,1,16.65,16.65,0,0,0-6.42,2.9,28.88,28.88,0,0,0-4,3.33,28.52,28.52,0,0,1-2.23,2.49c-3,2.89-2.83,12.84.31,27a75.21,75.21,0,0,1,1.28,8.67c.39,5.94.79,13.29,1.17,20.38.15,3.44.69,9.28,1.12,12.91s.89,9.29,1,12.51c.47,15.78,1.62,19.11,8.42,24.72,4.22,3.53,7.44,3.47,12-.09,3.45-2.67,4.27-3.6,6.07-6.55a18.89,18.89,0,0,0,2.51-6.61c2-8.83.66-14-6.22-23.64-3.3-4.61-4.27-6.9-3.8-9a2.89,2.89,0,0,1,1.19-1.68c1.11-.62,6.54-.76,9.17-.21a15,15,0,0,0,12.17-2.54,40.13,40.13,0,0,0,8.69-9.73c3.8-6.56,4.78-16.63,2.61-26.16-2.72-11.78-9.07-18.78-23.33-25.62C207.42,281.23,198,278.84,195.09,278.93Zm12,31.26c3.12,1.79,4.22,5.48,2.85,9.57-1.22,3.58-4.67,7.36-6.4,7-.39-.08-.95-.83-1.21-1.64-1.07-3.15-3.29-14.06-3-14.78s.9-.92,2.2-1.12A7.62,7.62,0,0,1,207.09,310.19Z" transform="translate(-66.68 83.6)"/><path class="cls-3" d="M326.43,306.75c-4.33,0-10,1.1-11.81,2.38-2.12,1.47-3.15,3.89-6.67,15.62-4.1,13.63-4.21,13.93-7,22.67-2.62,8.12-6.07,17.79-9.94,27.9-4.75,12.36-6.44,20-6.17,27.72.18,5.81,1.23,8.53,3.88,10.21,4.55,2.82,9.28,2,13.64-2.38,2.73-2.78,3.64-5,6.69-16.82,2-7.79,3.1-11.36,3.92-13,1.28-2.41,2.66-3.88,3.67-3.86.37,0,1.39,1.23,2.31,2.68a20.91,20.91,0,0,0,4,4.55c2,1.71,2.63,2,5.6,2.64s3.58.65,6.16,0c7.41-1.93,12.88-6.41,18.15-14.8,1.73-2.8,3.6-6,4.1-7.16a78.12,78.12,0,0,0,4.34-14.48,47.59,47.59,0,0,0-1.7-16.65c-2.75-7.68-10.54-16-20.29-21.82-2-1.2-4.17-2.52-4.8-3A18.83,18.83,0,0,0,326.43,306.75Zm9.34,33.31c1.72,1.72,2.09,4.37,1.16,8.27-1.17,5-3.74,8.28-6.87,8.85-2,.38-3.16,0-4.15-1.35l-.83-1.19,1.72-4.54c2-5.27,4.94-11,5.77-11.3S334.55,338.83,335.77,340.06Z" transform="translate(-66.68 83.6)"/><path class="cls-3" d="M266.09,295a11.11,11.11,0,0,0-6.27,2.27c-2.65,1.85-3.79,3.33-6.72,8.56-6.38,11.32-8.81,16.83-12,26.89-.89,2.87-2.7,8.35-4,12.17-5.5,16.21-9.55,32.09-9.64,37.84-.18,10.83,5.61,17.08,13.77,14.9a6.87,6.87,0,0,0,4.21-2.69c2.64-3,3.54-5.59,5.61-15.94,1.9-9.65,2.36-10.79,4.11-10.64s1.63,1.24-1.35,13.09c-1.7,6.79-2.74,11.57-2.7,12.45a9.9,9.9,0,0,0,3.09,6.93c3.52,2.87,6.41,2.82,10.89-.15,6.78-4.51,11.75-12.47,16.08-25.67,2.29-7,2.8-9.49,4-19.42.36-3,1-7.83,1.37-10.68a76.85,76.85,0,0,0,.73-8.55c0-1.82,0-4.06.07-5a27,27,0,0,0-.2-3.78c-.17-1.2-.39-3.28-.48-4.67a39.84,39.84,0,0,0-4.8-16.69c-1.8-3-7-8.47-9.15-9.71A11.3,11.3,0,0,0,266.09,295Zm-3.63,41.2c1,4.92,1.22,7.82.69,10.19s-1.52,3.47-3.33,3.77a3,3,0,0,1-2.8-.72l-1.32-1,1.15-4c.62-2.23,1.78-6.28,2.54-9.09C261,329.48,261.05,329.49,262.46,336.16Z" transform="translate(-66.68 83.6)"/><path class="cls-3" d="M379.15,357c-1.54.1-3.58,1.5-5.36,3.65-2.6,3.19-6.33,11-8.41,17.61-1.14,3.6-4.9,18.72-6.51,26.13C357.72,409.82,356,421,356,423.09a7.55,7.55,0,0,0,1.72,4.46c2.21,2.43,5.36,2.52,8.4.27,2-1.45,4.59-4.81,6.44-8.28,2.36-4.36,7.68-16.28,12.33-27.64a51.28,51.28,0,0,0,3.31-14.69c.51-8.85-.81-15.62-3.58-18.15A9.42,9.42,0,0,0,379.15,357Z" transform="translate(-66.68 83.6)"/><path class="cls-4" d="M192,20.89l10.77-5.41s2.95,2.87-1.29,5.41a56.43,56.43,0,0,1-10.25,4.41S189.24,22.29,192,20.89Z" transform="translate(-66.68 83.6)"/><path class="cls-4" d="M190.27,46.19l9.17-5.76s2.68,2.77-.92,5.45a45.84,45.84,0,0,1-8.75,4.75S187.89,47.69,190.27,46.19Z" transform="translate(-66.68 83.6)"/><path class="cls-4" d="M189.91,76.07,199,69.3s3.12,2.44-.41,5.52a50.53,50.53,0,0,1-8.79,5.72S187.54,77.83,189.91,76.07Z" transform="translate(-66.68 83.6)"/><path class="cls-4" d="M191.31,107.15l9.33-4.31s2,3.14-1.7,5.24a41.78,41.78,0,0,1-8.79,3.37S188.89,108.26,191.31,107.15Z" transform="translate(-66.68 83.6)"/><path class="cls-4" d="M194.62,143.94l8.86-5.4s2.43,2.86-1.06,5.4a42.37,42.37,0,0,1-8.44,4.41S192.32,145.35,194.62,143.94Z" transform="translate(-66.68 83.6)"/><path class="cls-4" d="M194.68,168.86l9.26-5.41s2.54,2.87-1.11,5.41a45.16,45.16,0,0,1-8.82,4.41S192.27,170.27,194.68,168.86Z" transform="translate(-66.68 83.6)"/><path class="cls-4" d="M195.25,196.3l8.28-6.85s3,2.41-.21,5.51a45.22,45.22,0,0,1-8,5.8S193.1,198.08,195.25,196.3Z" transform="translate(-66.68 83.6)"/><path class="cls-4" d="M198.58,224.64l8.57-5.41s2.35,2.87-1,5.41a40.34,40.34,0,0,1-8.16,4.41S196.36,226,198.58,224.64Z" transform="translate(-66.68 83.6)"/><path class="cls-4" d="M203.64,258.88l8.85-5.41s2.43,2.87-1.06,5.41a42.42,42.42,0,0,1-8.43,4.41S201.34,260.28,203.64,258.88Z" transform="translate(-66.68 83.6)"/><path class="cls-5" d="M138.38,253.47l-2.24,12.94s-7.6.47-6.65,7.59-11.39,13.3-11.39,13.3a11.91,11.91,0,0,0,0,12.81c4.27,6.65,9.19,9,9.19,9s2.67,7.75-6.35,9.57,10.92,16.54,10.92,16.54,14.72,8.07,20.42-3.32a38.47,38.47,0,0,0,3.32-22.79s5.7-3,4.75-13.39-.12-31.23,6.58-29.33-.4-6.16-.4-6.16Z" transform="translate(-66.68 83.6)"/><ellipse class="cls-5" cx="67.74" cy="451.02" rx="1.72" ry="6.6"/><ellipse class="cls-5" cx="364.23" cy="474.84" rx="1.72" ry="6.21"/><ellipse class="cls-5" cx="27.16" cy="423.12" rx="1.72" ry="8.47"/><ellipse class="cls-5" cx="364.23" cy="443.97" rx="1.72" ry="7.05"/><ellipse class="cls-5" cx="415.82" cy="497.94" rx="1.72" ry="6.61"/><ellipse class="cls-5" cx="355.97" cy="520.94" rx="1.72" ry="6.84"/><path class="cls-3" d="M387.64,327.6a10.57,10.57,0,0,0-4.3.37,10.09,10.09,0,0,0-5,4.21,41.7,41.7,0,0,0-2.16,7.09,16.49,16.49,0,0,0,.05,5.32,5.08,5.08,0,0,0,2.18,1.62,15.29,15.29,0,0,0,7.58,1.27,11.09,11.09,0,0,0,4.61-1.63,53.28,53.28,0,0,0,7.16-6.74,4.39,4.39,0,0,0,.89-4,9.83,9.83,0,0,0-5.78-6.07A28.34,28.34,0,0,0,387.64,327.6Z" transform="translate(-66.68 83.6)"/><path class="cls-4" d="M397.93,8.52l9.56-5.41s2.62,2.87-1.14,5.41a47.31,47.31,0,0,1-9.11,4.41S395.45,9.92,397.93,8.52Z" transform="translate(-66.68 83.6)"/><path class="cls-4" d="M394.29,68.11l9.56-5.41s2.62,2.87-1.14,5.41a47.31,47.31,0,0,1-9.11,4.41S391.81,69.51,394.29,68.11Z" transform="translate(-66.68 83.6)"/><path class="cls-4" d="M391.47,132.11l10.77-5.41s2.95,2.87-1.29,5.41a56.43,56.43,0,0,1-10.25,4.41S388.68,133.51,391.47,132.11Z" transform="translate(-66.68 83.6)"/><path class="cls-4" d="M396.36,32.38l8.9-5.41s2.45,2.87-1.06,5.41a42.75,42.75,0,0,1-8.48,4.41S394.05,33.78,396.36,32.38Z" transform="translate(-66.68 83.6)"/><path class="cls-4" d="M392.72,97l8.9-5.41s2.45,2.87-1.06,5.41a42.75,42.75,0,0,1-8.48,4.41S390.41,98.39,392.72,97Z" transform="translate(-66.68 83.6)"/><path class="cls-4" d="M372.9,250.79l10.76-5.41s3,2.87-1.28,5.41a56.43,56.43,0,0,1-10.25,4.41S370.11,252.19,372.9,250.79Z" transform="translate(-66.68 83.6)"/><path class="cls-4" d="M377.42,222.42,388.18,217s3,2.87-1.28,5.41a56.43,56.43,0,0,1-10.25,4.41S374.63,223.82,377.42,222.42Z" transform="translate(-66.68 83.6)"/><path class="cls-4" d="M382.23,185,393,179.63s2.95,2.87-1.29,5.41a56.43,56.43,0,0,1-10.25,4.41S379.44,186.44,382.23,185Z" transform="translate(-66.68 83.6)"/><path class="cls-4" d="M388.6,157.61l8.9-5.41s2.44,2.87-1.07,5.41A42.46,42.46,0,0,1,388,162S386.29,159,388.6,157.61Z" transform="translate(-66.68 83.6)"/><path class="cls-4" d="M366.28,284.33l10.76-5.4s3,2.87-1.28,5.4a56.82,56.82,0,0,1-10.25,4.42S363.49,285.74,366.28,284.33Z" transform="translate(-66.68 83.6)"/></svg>