<svg id="Calque_1" data-name="Calque 1" xmlns="http://www.w3.org/2000/svg" viewBox="0 0 1921.29 588.44"><defs><style>.cls-1{fill:#173f0a;}.cls-1,.cls-2,.cls-3{stroke:#000;stroke-miterlimit:10;}.cls-2{fill:#215609;}.cls-3{fill:#30720d;}.cls-4{fill:#6d6d6d;}</style></defs><title>plaineLg</title><path class="cls-1" d="M1312.5,176.5s-405.41-200-795.61,0c0,0-217.9,121-516.89,423H1312.5Z" transform="translate(1.29 -11.56)"/><path class="cls-2" d="M1312.5,333.78s-88.68-129.28-280-68.28c0,0-135.56-89-235.64-5,0,0-133-46-204,19,0,0-215.34-24.61-323.68,74.2L0,599.5H1312.5Z" transform="translate(1.29 -11.56)"/><path class="cls-3" d="M1312.5,533.78S1292.23,430.5,1155.41,385.5c0,0-130.49-19-171,59,0,0-128-121-281.25-11,0,0-157.1-101-253.38,4,0,0-203.59-58.36-315.9,33.32L0,599.5H1312.5Z" transform="translate(1.29 -11.56)"/><path class="cls-1" d="M1919.5,176.5s-320-200-628,0c0,0-172,121-408,423h1036Z" transform="translate(1.29 -11.56)"/><path class="cls-2" d="M1919.5,333.78s-70-129.28-221-68.28c0,0-107-89-186-5,0,0-105-46-161,19,0,0-170-24.61-255.48,74.2L883.5,599.5h1036Z" transform="translate(1.29 -11.56)"/><path class="cls-3" d="M1919.5,533.78s-16-103.28-124-148.28c0,0-103-19-135,59,0,0-101-121-222-11,0,0-124-101-200,4,0,0-160.7-58.36-249.35,33.32L883.5,599.5h1036Z" transform="translate(1.29 -11.56)"/><polygon class="cls-4" points="1.79 160.94 177.28 146.94 264.47 146.94 480.29 117.94 456.31 188.94 455.22 244.94 433.42 323.94 394.18 360.94 380.01 417.94 359.3 466.94 304.8 479.94 262.29 485.94 241.58 502.94 226.32 530.93 224.14 550.93 224.14 587.93 1.79 587.93 1.79 160.94"/><path d="M463.11,11.57a36.17,36.17,0,0,0-3.65,3.29,25.61,25.61,0,0,1-3.89,3.37c-.28.06-2.35.36-4.55.67-4.8.64-5.28.88-8.15,4.12A61.41,61.41,0,0,1,434,31.23,28.65,28.65,0,0,1,430.39,33c-2.22.88-2.8,1.24-2.75,1.67a12.23,12.23,0,0,0,2,2,12.88,12.88,0,0,1,2,2c0,.15-.55.63-1.28,1.1-1.52.95-1.63,1.34-.4,1.35.79,0,.68.13-1.21,1.63a10.75,10.75,0,0,1-3.44,2c-.77.16-1.36.43-1.34.58a3.78,3.78,0,0,0,.92,1,5.52,5.52,0,0,1,.92,1,4.57,4.57,0,0,1-1.69.4c-1.89.24-2.07.55-.72,1.29l.88.49-1.57,1a76,76,0,0,1-12.09,5.09c-4.67,1.47-13.13,2.57-24.65,3.24C363.19,60.15,354.5,63.23,348.83,72c-4,6.18-6.19,18.09-6.31,34.84,0,3.94-.19,8.47-.33,10.07-.52,5.89.13,10,1.89,11.92A16.43,16.43,0,0,1,345.8,132a10.34,10.34,0,0,0,1.3,2.48c.32.06,2.36-4.27,3.1-6.63a21.54,21.54,0,0,0,.82-3.67,52.19,52.19,0,0,1,2-7c2-5.67,2.42-8,2.42-13,0-2.8,0-3,.37-2a51.38,51.38,0,0,1,1.2,5.46c.71,3.88.76,4.51.42,5.87-.2.85-.6,3.67-.87,6.32a23.73,23.73,0,0,1-1.09,6c-.76,1.51-.74,1.63.33,3.86.5,1,1.89,4.24,3.16,7.26,2.27,5.55,4.53,9.42,6.08,10.48.87.65,5.68.26,9.37-.71,2.62-.71,3.38-1.18,3.06-2-.19-.45.14-.59,2.14-1,3.25-.7,4.11-1.09,4.14-1.91a2.44,2.44,0,0,0-.41-1.24A6.25,6.25,0,0,0,380,139a3.48,3.48,0,0,1-3-1.61c-1.06-2.35-2.5-9-2.34-10.76.27-3.06,4.24-12.52,8.22-19.67a46.54,46.54,0,0,0,2.61-5.6l1.08-2.88,1.2.29c.65.14,3.68.89,6.74,1.67s7,1.54,8.7,1.74a43.25,43.25,0,0,0,13.55-.52c1.5-.38,2.75-.66,2.78-.67.25.22,2,9.78,2.5,14,.58,4.62.62,5.65.27,8.63l-.39,3.39,1.67,2.75a13.36,13.36,0,0,1,2.3,5.67c.9,4.42.46,4.16,6.94,3.82,6.13-.37,6.56-.52,7.17-2.36.25-.76.54-1,1.53-1.17,1.41-.28,1.92-1,1.75-2.34-.21-1.64-1.93-2.56-4.83-2.54-1.7,0-1.87,0-2.44-1.07-.48-.86-.66-1.78-.84-4.66a30,30,0,0,1,0-5,38.46,38.46,0,0,0-.09-6.45,135.55,135.55,0,0,1,.4-18.31c.06-.51,1-1.32,3.35-2.91,4.73-3.18,7.59-6.79,10.24-13a5.28,5.28,0,0,1,1.14-1.94,4.94,4.94,0,0,1,1.42.45,9.45,9.45,0,0,0,1.22.48c.1,0,.11-.62,0-1.36a13.75,13.75,0,0,1,0-2.2l.07-.93.85.71a3.14,3.14,0,0,0,1.13.68c.4,0,1.32-3.29,1.37-4.87,0-1.2.12-1.31.57-.95a3.62,3.62,0,0,1,.87,1.4l.35,1,.73-2a29.27,29.27,0,0,0,1-3.72l.32-1.71.62.71.6.71.44-1.51a8.91,8.91,0,0,0,.25-3L461.9,60l1.31.91a8.14,8.14,0,0,0,1.38.89s-.17-1.8-.45-4l-.5-4,.77.38c.4.2.82.27.91.17a6,6,0,0,0-.43-2.15,22.88,22.88,0,0,1-.68-2.63c-.09-.65-.06-.66.75-.25,1,.5,1,.44-.24-2.9-1.66-4.4-1.4-8.09.7-10.9a11.11,11.11,0,0,0,1.49-3.19,15.25,15.25,0,0,1,2.43-4.43,11.87,11.87,0,0,0,2-3.31,5.25,5.25,0,0,0-.89-3.26c-.4-.45-.28-.53-3.3,1.81l-1.32,1,.65-3.29a23.62,23.62,0,0,0,.57-4,15.55,15.55,0,0,0-3-4.85A1.84,1.84,0,0,0,463.11,11.57ZM366.49,121.83l.94-2.8v1.57a40.22,40.22,0,0,0,1.65,12.09c.6,2,1.49,4.54,2,5.65l.85,2-1.07.26c-1.22.31-1.11.46-3.61-4.62-2-4.06-2.62-6.73-2.07-9.38C365.38,125.5,366,123.38,366.49,121.83Z" transform="translate(1.29 -11.56)"/></svg>