<svg id="Calque_1" data-name="Calque 1" xmlns="http://www.w3.org/2000/svg" viewBox="0 0 1920 512.89"><defs><style>.cls-1{fill:#173f0a;}.cls-1,.cls-2,.cls-3{stroke:#000;stroke-miterlimit:10;}.cls-2{fill:#215609;}.cls-3{fill:#30720d;}</style></defs><title>plaine</title><path class="cls-1" d="M1455.5,176.5s-320-200-628,0c0,0-172,121-408,423h1036Z" transform="translate(0 -87.11)"/><path class="cls-2" d="M1455.5,333.78s-70-129.28-221-68.28c0,0-107-89-186-5,0,0-105-46-161,19,0,0-170-24.61-255.48,74.2L419.5,599.5h1036Z" transform="translate(0 -87.11)"/><path class="cls-3" d="M1455.5,533.78s-16-103.28-124-148.28c0,0-103-19-135,59,0,0-101-121-222-11,0,0-124-101-200,4,0,0-160.7-58.36-249.35,33.32L419.5,599.5h1036Z" transform="translate(0 -87.11)"/><path class="cls-1" d="M.5,176.5s320-200,628,0c0,0,172,121,408,423H.5Z" transform="translate(0 -87.11)"/><path class="cls-2" d="M.5,333.78s70-129.28,221-68.28c0,0,107-89,186-5,0,0,105-46,161,19,0,0,170-24.61,255.48,74.2L1036.5,599.5H.5Z" transform="translate(0 -87.11)"/><path class="cls-3" d="M.5,533.78s16-103.28,124-148.28c0,0,103-19,135,59,0,0,101-121,222-11,0,0,124-101,200,4,0,0,160.7-58.36,249.35,33.32L1036.5,599.5H.5Z" transform="translate(0 -87.11)"/><path class="cls-1" d="M1919.5,176.5s-320-200-628,0c0,0-172,121-408,423h1036Z" transform="translate(0 -87.11)"/><path class="cls-2" d="M1919.5,333.78s-70-129.28-221-68.28c0,0-107-89-186-5,0,0-105-46-161,19,0,0-170-24.61-255.48,74.2L883.5,599.5h1036Z" transform="translate(0 -87.11)"/><path class="cls-3" d="M1919.5,533.78s-16-103.28-124-148.28c0,0-103-19-135,59,0,0-101-121-222-11,0,0-124-101-200,4,0,0-160.7-58.36-249.35,33.32L883.5,599.5h1036Z" transform="translate(0 -87.11)"/></svg>