<?xml version="1.0" standalone="no"?>
<!DOCTYPE svg PUBLIC "-//W3C//DTD SVG 20010904//EN"
 "http://www.w3.org/TR/2001/REC-SVG-20010904/DTD/svg10.dtd">
<svg version="1.0" xmlns="http://www.w3.org/2000/svg"
 width="1280.000000pt" height="1009.000000pt" viewBox="0 0 1280.000000 1009.000000"
 preserveAspectRatio="xMidYMid meet">
<g transform="translate(0.000000,1009.000000) scale(0.100000,-0.100000)"
fill="#000000" stroke="none">
<path d="M6395 9303 c8 -21 20 -51 29 -68 13 -25 16 -72 16 -275 0 -226 -2
-249 -20 -285 -11 -22 -20 -50 -20 -63 0 -13 -6 -33 -12 -45 -12 -22 -31 -92
-47 -174 -4 -24 -15 -51 -24 -61 -10 -10 -17 -24 -17 -31 0 -24 -75 -112 -100
-117 -14 -3 -35 -10 -48 -15 -13 -5 -32 -9 -43 -9 -10 0 -36 -9 -56 -20 -21
-11 -50 -20 -64 -20 -15 0 -32 -7 -39 -15 -7 -8 -28 -17 -49 -21 -20 -4 -45
-13 -56 -20 -11 -8 -25 -14 -33 -14 -14 0 -31 -12 -70 -51 -15 -15 -38 -32
-51 -39 -28 -14 -29 -15 -95 -72 -72 -63 -102 -148 -52 -148 13 0 26 6 29 14
3 8 18 20 34 28 64 34 122 66 144 81 13 10 35 17 49 17 14 1 36 7 50 15 26 15
96 19 149 9 27 -6 31 -10 31 -41 0 -20 -6 -36 -14 -39 -8 -3 -17 -17 -20 -30
-4 -16 -19 -30 -39 -39 -44 -18 -155 -129 -163 -162 -4 -16 -11 -34 -17 -41
-6 -7 -21 -36 -33 -63 -13 -28 -33 -63 -45 -77 -58 -74 -210 -219 -247 -234
-15 -7 -34 -18 -43 -26 -14 -11 -22 -11 -51 1 -23 10 -40 11 -51 5 -17 -9 -64
14 -80 39 -4 7 -22 13 -40 13 l-31 0 39 -40 c32 -32 46 -40 76 -40 50 0 61
-17 53 -80 -5 -36 -16 -63 -34 -84 -22 -25 -29 -45 -34 -106 -9 -91 -44 -149
-153 -256 -40 -39 -73 -76 -73 -83 0 -14 48 -4 71 16 9 8 34 17 55 20 58 9
114 40 114 63 0 11 9 24 21 30 11 7 28 28 36 48 24 58 81 122 108 122 14 0 29
8 34 18 12 22 133 47 161 32 10 -5 27 -10 37 -10 11 0 28 -6 38 -14 19 -14 19
-15 2 -33 -9 -11 -17 -29 -17 -40 0 -11 -11 -30 -25 -43 -13 -12 -22 -27 -19
-31 3 -5 32 -9 64 -9 48 0 64 -5 87 -24 l27 -24 -18 -34 c-20 -36 -72 -78 -97
-78 -9 0 -36 -20 -61 -44 -26 -24 -55 -47 -65 -50 -11 -3 -32 -27 -48 -53 -17
-25 -60 -77 -97 -115 -57 -57 -73 -68 -101 -68 -20 0 -41 -7 -51 -18 -9 -11
-42 -27 -74 -37 -31 -9 -70 -23 -87 -31 -16 -7 -61 -16 -100 -19 -38 -4 -80
-11 -92 -17 -16 -8 -26 -8 -36 1 -12 9 -16 8 -20 -2 -3 -8 -29 -22 -59 -32
-29 -9 -70 -32 -90 -51 -21 -19 -44 -34 -52 -34 -18 0 -133 -37 -173 -55 -17
-8 -52 -15 -79 -15 -26 0 -55 -6 -63 -13 -31 -27 -102 -47 -164 -47 -69 0
-187 23 -230 46 -28 14 -148 20 -160 8 -9 -9 7 -36 53 -89 22 -25 40 -52 40
-59 0 -19 74 -96 92 -96 9 0 21 -7 28 -15 7 -8 20 -15 29 -15 9 0 29 -7 46
-16 22 -11 72 -17 190 -20 88 -3 174 -7 191 -10 27 -4 119 -55 134 -75 3 -3
20 -14 37 -23 18 -9 50 -33 72 -52 21 -20 63 -45 93 -55 66 -23 203 -25 272
-4 166 50 326 -33 341 -176 8 -74 -10 -338 -24 -352 -16 -16 -14 -177 3 -213
8 -16 19 -89 25 -164 16 -206 31 -281 64 -319 15 -18 27 -41 27 -52 0 -47 52
-108 117 -140 24 -12 48 -30 54 -40 5 -10 17 -19 27 -19 9 0 38 -18 65 -41 58
-50 63 -84 16 -120 -16 -13 -40 -32 -51 -41 -12 -10 -37 -18 -56 -18 -20 0
-40 -7 -47 -16 -6 -9 -32 -18 -61 -21 -52 -5 -161 -40 -170 -54 -3 -5 -18 -9
-33 -9 -15 0 -32 -5 -38 -11 -6 -6 -35 -17 -65 -24 -107 -27 -161 -44 -171
-54 -6 -6 -24 -11 -39 -11 -16 0 -40 -7 -54 -16 -14 -9 -42 -20 -62 -25 -58
-12 -124 -30 -157 -41 -16 -5 -50 -14 -74 -19 -25 -5 -52 -16 -61 -24 -9 -8
-26 -15 -38 -15 -13 0 -46 -13 -76 -28 -29 -16 -68 -32 -87 -35 -19 -4 -47
-13 -64 -21 -16 -8 -64 -25 -105 -37 -41 -12 -80 -26 -85 -30 -6 -5 -30 -11
-53 -15 -23 -4 -45 -10 -48 -15 -3 -5 -23 -13 -45 -19 -22 -6 -68 -24 -103
-40 -36 -17 -73 -30 -85 -30 -11 0 -35 -9 -53 -19 -18 -11 -58 -27 -88 -37
-30 -9 -64 -23 -75 -31 -11 -7 -35 -13 -53 -13 -19 0 -45 -9 -59 -20 -14 -11
-34 -20 -45 -20 -26 0 -147 -40 -154 -51 -3 -5 -23 -9 -44 -9 -21 0 -42 -5
-46 -11 -11 -19 -94 -49 -152 -55 -32 -4 -67 -13 -79 -20 -12 -8 -36 -14 -52
-14 -17 0 -45 -9 -63 -20 -18 -11 -41 -20 -51 -20 -23 0 -116 -30 -142 -46
-11 -6 -46 -14 -79 -17 -32 -3 -66 -13 -75 -21 -26 -24 -122 -21 -168 4 -21
11 -49 20 -63 20 -14 0 -31 5 -37 11 -20 20 -157 24 -206 6 -23 -8 -65 -18
-94 -21 -29 -3 -62 -11 -75 -19 -16 -10 -70 -16 -179 -21 -163 -6 -204 -15
-264 -60 -20 -16 -51 -25 -95 -30 -60 -7 -143 -37 -155 -56 -3 -5 -24 -11 -46
-15 -23 -4 -68 -22 -100 -41 -31 -19 -63 -34 -69 -34 -6 0 -18 -7 -26 -15 -9
-8 -25 -15 -36 -15 -12 0 -29 -7 -39 -16 -9 -8 -47 -26 -84 -39 -37 -13 -72
-28 -78 -34 -6 -6 -21 -11 -33 -11 -12 0 -24 -7 -27 -15 -4 -8 -28 -26 -56
-39 -27 -14 -52 -30 -56 -36 -3 -5 -24 -10 -45 -10 -21 0 -42 -5 -46 -11 -3
-6 -21 -17 -38 -25 -17 -8 -40 -19 -51 -26 -11 -6 -25 -14 -32 -17 -29 -15
-131 -88 -163 -118 -20 -17 -49 -37 -63 -42 -17 -7 -27 -18 -27 -31 0 -13 -11
-24 -34 -34 -18 -8 -36 -18 -39 -23 -6 -10 10 -63 30 -98 9 -16 8 -25 -3 -40
-9 -12 -14 -46 -14 -102 0 -75 2 -83 19 -83 11 0 33 -18 50 -42 24 -33 31 -52
31 -89 0 -44 2 -48 30 -54 16 -3 49 -26 74 -51 25 -24 51 -44 59 -44 16 0 61
-47 71 -74 4 -13 10 -15 19 -8 6 5 50 12 97 14 l85 4 49 47 c30 29 58 47 73
47 32 0 83 -39 83 -64 0 -12 14 5 33 43 66 132 80 151 127 177 19 10 61 43 92
71 31 29 63 53 71 53 9 0 34 18 57 40 23 22 59 45 83 52 23 6 62 25 87 41 25
17 59 33 75 38 106 27 139 39 163 62 37 34 105 67 139 67 15 0 41 7 57 15 15
8 45 15 65 15 59 0 77 9 102 53 38 67 160 182 205 195 76 21 113 38 137 64 13
14 40 28 60 32 24 5 38 13 43 28 3 12 22 37 40 56 19 19 34 40 34 46 0 19 37
87 61 113 13 12 30 23 40 23 9 0 22 7 29 15 7 8 28 17 49 20 20 4 48 13 63 21
14 8 40 14 57 14 17 0 48 6 68 14 21 8 53 17 71 20 18 3 40 13 48 21 9 8 26
15 38 15 13 0 39 6 57 14 19 7 55 17 81 20 26 4 50 11 53 16 3 5 26 12 50 16
25 3 48 10 51 15 2 5 24 14 47 20 23 6 70 24 104 40 34 16 73 29 86 29 14 0
30 6 36 14 7 8 28 17 49 21 54 10 134 36 157 52 11 7 32 13 47 13 15 0 42 9
60 20 18 11 44 20 58 20 14 0 49 14 79 30 30 17 67 30 84 30 16 0 40 9 54 20
17 13 41 20 68 20 26 0 48 6 55 15 7 8 23 15 35 15 12 0 28 7 35 15 7 8 28 15
47 15 20 0 46 9 60 20 14 11 36 20 48 20 12 0 39 7 58 15 20 8 49 15 65 15 15
0 37 7 48 15 10 8 28 15 38 15 11 0 28 7 37 16 10 9 35 20 56 25 118 26 161
37 179 46 10 6 37 14 59 18 22 4 45 11 50 15 6 5 40 14 77 19 67 11 143 34
162 50 6 5 32 12 58 16 26 4 53 13 59 21 6 8 22 14 34 14 25 0 135 33 180 54
108 51 128 55 163 30 36 -25 26 -134 -12 -134 -7 0 -30 -12 -49 -27 -55 -42
-107 -73 -121 -73 -7 0 -25 -11 -39 -24 -14 -13 -47 -32 -74 -42 -26 -10 -63
-30 -81 -46 -18 -15 -39 -28 -47 -28 -8 0 -55 -38 -104 -85 -50 -47 -96 -85
-104 -85 -8 0 -22 -9 -31 -19 -9 -10 -29 -21 -44 -25 -103 -21 -139 -25 -232
-25 -73 -1 -114 -6 -134 -16 -16 -9 -55 -15 -89 -15 -41 0 -66 -5 -78 -16 -10
-9 -37 -18 -61 -20 -64 -7 -149 -35 -185 -62 -18 -13 -53 -30 -79 -38 -26 -8
-66 -25 -90 -39 -23 -14 -49 -25 -58 -25 -8 0 -21 -9 -28 -19 -8 -11 -26 -23
-40 -26 -37 -9 -168 -123 -168 -146 0 -4 -12 -12 -27 -17 -16 -5 -47 -28 -70
-50 -23 -21 -66 -55 -95 -75 -29 -19 -61 -45 -70 -56 -11 -12 -30 -21 -47 -21
-16 0 -31 -6 -35 -15 -3 -8 -16 -15 -30 -15 -37 0 -56 -10 -56 -31 0 -13 7
-19 24 -19 14 0 28 -5 31 -10 4 -6 24 -19 46 -31 32 -16 47 -18 72 -10 18 5
54 12 80 15 27 3 58 13 70 21 12 8 32 15 45 15 13 0 53 14 89 31 61 29 68 30
151 24 145 -10 255 -9 294 2 21 6 56 25 78 43 50 40 89 49 248 60 82 6 129 14
144 24 12 9 43 16 68 16 28 0 56 8 75 20 18 12 47 20 74 20 47 0 138 23 184
46 16 8 47 14 70 14 25 0 54 8 72 20 17 11 44 20 62 20 18 0 47 7 65 14 18 8
59 18 90 21 32 4 60 11 63 16 8 13 471 12 495 -1 11 -6 74 -14 142 -19 68 -5
148 -15 178 -21 63 -14 237 -7 253 9 6 6 22 11 35 11 13 0 40 7 60 16 127 56
159 75 187 113 17 22 40 44 53 50 12 6 22 15 22 19 0 5 11 21 25 36 14 15 25
33 25 39 0 16 58 67 75 67 7 0 18 14 24 30 5 17 14 30 18 30 5 0 17 14 27 31
10 17 41 55 70 84 28 29 58 60 66 69 8 9 40 37 70 62 30 25 66 56 80 68 28 24
171 96 192 96 8 0 23 7 34 15 10 8 26 15 34 15 8 0 29 7 45 16 17 8 48 19 70
24 74 15 165 41 192 56 16 7 47 14 69 14 23 0 47 6 53 14 7 8 28 17 47 21 20
3 54 19 76 36 23 16 53 29 68 29 21 0 29 6 34 26 4 14 32 52 63 84 64 67 99
125 109 176 4 20 20 60 35 90 16 29 29 65 29 78 0 14 5 28 11 31 14 9 59 109
59 132 0 11 -7 28 -15 39 -8 10 -15 27 -15 36 0 10 -9 22 -20 28 -17 9 -20 21
-20 70 0 79 12 90 98 90 43 1 74 6 86 15 12 9 43 15 80 15 44 0 69 6 91 20 17
11 47 20 67 20 44 0 98 23 153 65 49 38 109 65 144 65 14 0 37 6 52 13 14 8
49 17 78 20 34 4 62 15 81 30 18 16 52 29 91 36 35 6 67 15 73 21 5 5 19 10
31 10 11 0 37 9 58 20 20 11 43 20 51 20 7 0 61 16 119 35 58 19 119 35 136
35 16 0 33 4 36 10 7 12 80 44 120 54 29 6 69 23 127 53 15 8 51 16 80 19 63
6 153 30 190 50 14 8 37 14 50 14 13 0 32 6 43 14 11 7 40 16 65 20 60 9 179
46 186 57 3 5 27 9 53 9 34 0 55 6 71 20 13 11 35 20 50 20 15 0 39 10 54 21
23 18 27 27 24 68 l-3 46 -64 3 c-42 2 -76 -2 -95 -11 -47 -23 -139 -47 -176
-47 -18 0 -41 -7 -50 -15 -9 -8 -39 -18 -66 -21 -27 -4 -59 -12 -70 -20 -12
-7 -46 -16 -75 -20 -30 -4 -63 -13 -74 -20 -11 -8 -34 -14 -51 -14 -17 0 -37
-7 -44 -15 -7 -8 -21 -15 -30 -15 -10 0 -31 -6 -47 -14 -63 -31 -105 -46 -132
-46 -16 0 -40 -9 -54 -20 -14 -11 -39 -20 -55 -20 -16 0 -35 -7 -42 -15 -7 -8
-18 -15 -25 -15 -20 0 -148 -40 -177 -56 -14 -8 -40 -14 -58 -14 -17 0 -43 -9
-57 -20 -14 -11 -37 -20 -50 -20 -13 0 -51 -13 -85 -30 -33 -17 -76 -30 -97
-30 -20 0 -49 -9 -66 -20 -17 -11 -47 -20 -68 -20 -21 0 -54 -7 -74 -15 -19
-8 -47 -15 -62 -15 -14 0 -39 -7 -55 -15 -15 -8 -38 -15 -50 -15 -12 0 -38 -9
-59 -20 -31 -17 -56 -20 -157 -20 -101 0 -126 3 -157 20 -21 11 -50 20 -65 20
-15 0 -30 4 -33 10 -3 5 -29 20 -56 31 -27 12 -54 30 -60 40 -5 11 -17 19 -25
19 -9 0 -33 14 -54 30 -21 17 -45 30 -54 30 -9 0 -21 9 -28 20 -7 11 -19 20
-26 20 -8 0 -31 14 -52 30 -21 17 -45 30 -54 30 -9 0 -24 9 -33 20 -10 11 -23
20 -31 20 -18 0 -177 118 -239 178 -13 12 -29 22 -35 22 -20 0 -283 264 -306
307 -7 13 -35 47 -63 75 -30 30 -49 59 -49 73 0 15 -16 35 -45 59 -25 21 -48
49 -51 64 -4 15 -19 41 -34 57 -15 17 -39 55 -53 85 -25 52 -51 92 -136 205
-21 28 -43 65 -49 84 -7 19 -23 49 -37 67 -14 18 -25 37 -25 43 0 6 -12 21
-26 34 -23 20 -49 67 -98 179 -20 44 -21 97 -2 123 7 11 16 31 19 45 4 14 18
37 32 53 25 26 30 27 125 27 75 0 102 -4 114 -15 9 -9 37 -18 64 -22 42 -5 52
-2 70 18 l22 22 -28 36 c-25 34 -27 44 -30 150 -3 103 -2 116 17 142 24 33 27
55 7 66 -7 4 -21 25 -31 45 -16 36 -16 38 5 68 31 44 83 42 134 -5 21 -19 47
-35 58 -35 19 0 20 4 13 68 -4 37 -14 83 -21 102 -17 40 -52 80 -70 80 -7 0
-29 24 -49 54 -20 30 -42 57 -50 60 -10 3 -15 19 -15 43 0 43 4 50 44 81 33
25 67 28 104 8 15 -8 66 -27 115 -42 48 -14 90 -30 93 -35 3 -5 13 -9 24 -9
10 0 37 -16 60 -35 23 -19 49 -35 58 -35 10 0 30 -7 46 -15 31 -16 32 -16 56
27 32 54 -133 233 -308 333 -9 5 -35 21 -57 36 -23 15 -59 30 -80 34 -22 4
-50 13 -62 21 -12 8 -29 14 -37 14 -8 0 -37 11 -65 26 -37 18 -51 31 -51 46 0
11 -7 26 -16 32 -18 14 -53 109 -54 146 0 14 -16 57 -35 94 -19 38 -35 76 -35
86 0 9 -13 36 -30 58 -16 23 -30 45 -30 50 0 4 -22 39 -49 78 -81 117 -365
404 -400 404 -9 0 -39 23 -66 50 -27 28 -57 50 -67 50 -10 0 -21 7 -25 15 -3
9 -27 27 -54 40 -26 14 -50 29 -54 35 -3 5 -28 10 -54 10 l-49 0 13 -37z m864
-3159 c12 -15 21 -31 21 -36 0 -5 15 -28 33 -51 18 -23 41 -54 52 -69 11 -14
41 -53 68 -86 26 -33 47 -63 47 -67 0 -4 9 -18 20 -32 24 -30 26 -85 5 -103
-22 -18 -55 -5 -103 41 -24 22 -56 45 -70 50 -15 5 -38 26 -51 47 -14 20 -37
51 -52 67 -68 76 -106 159 -94 208 6 24 54 55 87 56 9 1 26 -11 37 -25z m-385
-564 c116 -103 234 -196 285 -223 24 -13 47 -31 53 -40 6 -11 22 -17 45 -17
24 0 47 -9 73 -30 21 -16 47 -30 58 -30 10 0 31 -9 45 -20 14 -11 34 -20 45
-20 12 0 23 -4 26 -9 10 -16 91 -51 118 -51 14 0 37 -9 51 -20 14 -11 34 -20
44 -20 10 0 27 -6 38 -13 25 -16 132 -57 150 -57 8 0 34 -14 59 -31 63 -42
174 -95 215 -103 19 -3 42 -12 50 -20 9 -7 39 -21 66 -31 28 -10 57 -24 65
-31 8 -7 26 -17 40 -23 49 -22 85 -48 96 -70 7 -13 17 -28 23 -34 19 -19 12
-90 -12 -118 -21 -25 -83 -51 -157 -64 -33 -6 -71 -21 -132 -52 -35 -18 -129
-17 -154 2 -10 8 -41 15 -67 15 -27 0 -63 7 -80 15 -18 8 -70 26 -117 40 -46
14 -89 30 -94 35 -6 6 -21 10 -35 10 -15 0 -38 6 -52 14 -15 8 -69 17 -120 21
-105 8 -184 29 -277 74 -34 17 -75 31 -90 31 -39 0 -130 28 -168 51 -17 10
-38 19 -45 19 -19 0 -116 101 -128 134 -6 14 -15 26 -20 26 -17 0 -42 63 -48
120 -3 30 -12 67 -19 82 -20 39 -19 293 1 328 8 14 14 41 15 61 0 37 14 63 40
73 26 10 92 -4 114 -24z"/>
</g>
</svg>
